<svg height="512" viewBox="0 0 60 60" width="512" xmlns="http://www.w3.org/2000/svg"><g id="Page-1" fill="none" fill-rule="evenodd"><g id="048---Electronic-Waste" fill-rule="nonzero"><rect id="Rectangle-path" fill="#ffdc00" height="6" rx="1" width="58" x="1" y="33"/><path id="Shape" d="m58 33h-3c.5522847 0 1 .4477153 1 1v4c0 .5522847-.4477153 1-1 1h3c.5522847 0 1-.4477153 1-1v-4c0-.5522847-.4477153-1-1-1z" fill="#fec108"/><path id="Shape" d="m57 39-4.621 18.485c-.2226204.890621-1.0229774 1.51532-1.941 1.515h-40.876c-.91802257.00032-1.71837957-.624379-1.941-1.515l-4.621-18.485z" fill="#ff9801"/><path id="Shape" d="m54 39-4.621 18.485c-.2226204.890621-1.0229774 1.51532-1.941 1.5150001l3-.0000001c.9180226.00032 1.7183796-.624379 1.941-1.515l4.621-18.485z" fill="#f57c00"/><path id="Shape" d="m35 24v3c-.0032948 1.1032019-.8967981 1.9967052-2 2h-30c-1.10320187-.0032948-1.9967052-.8967981-2-2v-3z" fill="#7f8e94"/><path id="Shape" d="m32 24v3c-.0032948 1.1032019-.8967981 1.9967052-2 2h3c1.1032019-.0032948 1.9967052-.8967981 2-2v-3z" fill="#545c60"/><path id="Shape" d="m35 3v21h-34v-21c.0032948-1.10320187.89679813-1.9967052 2-2h30c1.1032019.0032948 1.9967052.89679813 2 2z" fill="#02a9f4"/><path id="Shape" d="m33 1h-3c1.1032019.0032948 1.9967052.89679813 2 2v21h3v-21c-.0032948-1.10320187-.8967981-1.9967052-2-2z" fill="#0377bc"/><path id="Rectangle-path" d="m13 29h10v4h-10z" fill="#607d8b"/><path id="Shape" d="m41 13h12c1.1045695 0 2 .8954305 2 2v18h-16v-18c0-1.1045695.8954305-2 2-2z" fill="#02a9f4"/><path id="Shape" d="m53 13h-3c1.1045695 0 2 .8954305 2 2v18h3v-18c0-1.1045695-.8954305-2-2-2z" fill="#0377bc"/><g fill="#3f51b5"><path id="Shape" d="m43 13 .811 3.243c.1114591.4449311.5113206.7569879.97.757h4.438c.4586794-.0000121.8585409-.3120689.97-.757l.811-3.243z"/><path id="Shape" d="m28.684 10.052-2.537.844-2.154-1.436c-.5479124-.3653082-1.2405397-.43748803-1.852-.193l-2.8 1.119.559-2.786 2.656-1.771c.4595009-.30651804.583518-.92749909.277-1.387s-.9274991-.58351804-1.387-.277l-2.653 1.77c-.4415906.29446895-.7486327.75179622-.854 1.272l-.626 3.13-4.413-2.937c-.441463-.29247119-.9800068-.40017993-1.5-.3l-4.6.92c-.54123905.11045695-.89045695.63876095-.78 1.18s.63876095.8904569 1.18.78l4.594-.918 4.406 2.938-1.4.938c-.4415906.294469-.7486327.7517962-.854 1.272l-.926 4.59c-.0530985.2599175-.0007425.5302825.1455449.751589.1462873.2213065.3745164.3754164.6344551.428411.0657696.0137352.132813.0204396.2.02.4748929-.000378.8840215-.3347017.979-.8l.921-4.6 1.63-1.087 1.37 3.425c.2154143.5497339.6638205.9754267 1.224 1.162l2.56.853c.3394023.1128959.7132522.0361471.9807241-.201336.2674719-.237483.3879305-.599621.3160001-.95-.0719305-.350379-.3253219-.6357681-.6647242-.748664l-2.559-.853-1.457-3.643 3.583-1.433 2.156 1.438c.5122388.3450266 1.156286.4308503 1.741.232l2.536-.846c.5246705-.174522.808522-.7413295.634-1.266s-.7413295-.80852197-1.266-.634z"/><path id="Shape" d="m51.242 28.03-3.242-.81v-1.806l1.707-1.707c.3789722-.3923789.3735524-1.0160848-.0121814-1.4018186s-1.0094397-.3911536-1.4018186-.0121814l-1.387 1.387-3.306-2.48c-.4418278-.3313708-1.0686292-.2418278-1.4.2s-.2418278 1.0686292.2 1.4l3.6 2.7v2.223l-2.857 4.762c-.1918041.3065026-.2032165.6926712-.0298476 1.0099658.173369.3172946.5045139.5162906.8660598.5204443.3615458.0041536.6971751-.1871822.8777878-.5004101l2.62-4.366 3.281.821c.0791715.0196698.1604221.0297422.242.03.5045236-.0010576.9292396-.3777768.9905039-.8785681.0612643-.5007912-.2601138-.9687839-.7495039-1.0914319z"/></g><path id="Shape" d="m58 32h-2v-17c0-1.6568542-1.3431458-3-3-3h-12c-1.6568542 0-3 1.3431458-3 3v17h-14v-2h9c1.6568542 0 3-1.3431458 3-3v-24c0-1.65685425-1.3431458-3-3-3h-30c-1.65685425 0-3 1.34314575-3 3v24c0 1.6568542 1.34314575 3 3 3h9v2h-10c-1.1045695 0-2 .8954305-2 2v4c0 1.1045695.8954305 2 2 2h.22l4.431 17.729c.33446781 1.3351549 1.53458908 2.2714226 2.911 2.271h40.876c1.3767019.0003078 2.5769204-.936448 2.911-2.272l4.431-17.728h.22c1.1045695 0 2-.8954305 2-2v-4c0-1.1045695-.8954305-2-2-2zm-8.281-18-.5 2h-4.439l-.5-2zm-9.719 1c0-.5522847.4477153-1 1-1h1.22l.621 2.484c.2221417.8906563 1.0220591 1.5157464 1.94 1.516h4.438c.9179409-.0002536 1.7178583-.6253437 1.94-1.516l.621-2.484h1.22c.5522847 0 1 .4477153 1 1v17h-14zm-38 12v-2h2c.55228475 0 1-.4477153 1-1s-.44771525-1-1-1h-2v-20c0-.55228475.44771525-1 1-1h30c.5522847 0 1 .44771525 1 1v20h-26c-.55228475 0-1 .4477153-1 1s.44771525 1 1 1h26v2c0 .5522847-.4477153 1-1 1h-30c-.55228475 0-1-.4477153-1-1zm12 3h8v2h-8zm37.409 27.242c-.111161.44569-.5116567.7583324-.971.758h-40.876c-.45905212.0004469-.8594505-.3117071-.971-.757l-4.311-17.243h51.44zm-49.409-19.242v-4h56v4z" fill="#000"/></g></g></svg>