<svg height="512" viewBox="0 0 36 60" width="512" xmlns="http://www.w3.org/2000/svg"><g id="Page-1" fill="none" fill-rule="evenodd"><g id="014---Smashed-Bottle" fill-rule="nonzero"><rect id="Rectangle-path" fill="#a0522d" height="6" rx="3" width="20" x="8" y="1"/><path id="Shape" d="m25 1h-3c1.6568542.00000002 3 1.34314577 3 3s-1.3431458 2.99999998-3 3h3c1.6568542 0 3-1.34314575 3-3s-1.3431458-3-3-3z" fill="#783e22"/><path id="Shape" d="m25 7 2.555 13.627c.2857361 1.5225934 1.1493179 2.8756576 2.41 3.776l2.522 1.8c1.5776858 1.1267088 2.5137407 2.9462983 2.513 4.885l.0000004 27.912h-20.0000004c-1.1045695 0-2-.8954305-2-2s-.8954305-2-2-2h-1c-1.1045695 0-2-.8954305-2-2v-1c0-1.1045695-.8954305-2-2-2h-3c-1.1045695 0-2-.8954305-2-2v-16.912c-.00009453-1.937996.93588878-3.7567013 2.513-4.883l2.522-1.8c1.26068213-.9003424 2.12426386-2.2534066 2.41-3.776l2.555-13.629z" fill="#009688"/><path id="Shape" d="m32.487 26.205-2.522-1.8c-1.2606821-.9003424-2.1242639-2.2534066-2.41-3.776l-2.555-13.629h-3l2.555 13.627c.2857361 1.5225934 1.1493179 2.8756576 2.41 3.776l2.522 1.8c1.5776858 1.1267088 2.5137407 2.9462983 2.513 4.885v27.912h3v-27.912c.0000945-1.937996-.9358888-3.7567013-2.513-4.883z" fill="#00695c"/><path id="Shape" d="m12.633 21c-.062068.0002531-.1240176-.0054396-.185-.017-.2609012-.0485511-.4918042-.1988173-.641855-.4177039-.1500509-.2188867-.2069425-.4884409-.158145-.7492961l1.688-9c.1016204-.5428959.6241041-.90062039 1.167-.799.5428959.1016204.9006204.6241041.799 1.167l-1.688 9c-.0884296.4723951-.5004003.8150741-.981.816z" fill="#f5f5f5"/><path id="Shape" d="m35 53h-16.382c-.3464401-.000185-.6681037-.1796678-.8501945-.4743943-.1820909-.2947265-.1986643-.6627032-.0438055-.9726057l.881-1.763c.2259277-.4513309.0801147-1.0002741-.34-1.28l-4.25-2.833c-.2495126-.1662282-.4112774-.435637-.4407264-.734001-.0294489-.2983641.0765257-.5941991.2887264-.805999l1.43-1.43c.2859079-.2859943.3714219-.7160366.216678-1.0896546-.1547439-.3736179-.5192821-.6172591-.923678-.6173454h-13.586v-7h34z" fill="#ffeb3a"/><path id="Rectangle-path" d="m32 34h3v19h-3z" fill="#fdd834"/><circle id="Oval" cx="12" cy="24" fill="#f5f5f5" r="1"/><path id="Shape" d="m5.454 23.589-2.523 1.8c-1.83833236 1.3163146-2.92951374 3.4379941-2.931 5.699v16.912c0 1.6568542 1.34314575 3 3 3h3c.55228475 0 1 .4477153 1 1v1c0 1.6568542 1.34314575 3 3 3h1c.5522847 0 1 .4477153 1 1 0 1.6568542 1.3431458 3 3 3h20c.5522847 0 1-.4477153 1-1v-27.912c-.001726-2.2614598-1.0932604-4.3834742-2.932-5.7l-2.522-1.8c-1.0523824-.7482074-1.7724823-1.8764117-2.008-3.146l-2.37-12.636c1.8933147-.57473079 3.0791968-2.45046706 2.7863977-4.40730752-.2927991-1.95684047-1.9757783-3.40331333-3.9543977-3.39869248h-14c-1.97861936-.00462085-3.66159862 1.44185201-3.95439771 3.39869248-.29279909 1.95684046.89308304 3.83257673 2.78639771 4.40730752l-2.37 12.637c-.2355177 1.2695883-.9556176 2.3977926-2.008 3.146zm13.366 24.089-4.251-2.833 1.431-1.431c.5718158-.5719885.7428438-1.4320732.433356-2.1793091-.3094879-.7472359-1.0385642-1.2345182-1.847356-1.2346909h-12.586v-5h32v17h-15.382l.882-1.763c.4512571-.9024116.1596942-1.9996313-.68-2.559zm-3.82 10.322c-.5522847 0-1-.4477153-1-1 0-1.6568542-1.3431458-3-3-3h-1c-.55228475 0-1-.4477153-1-1v-1c0-1.6568542-1.34314575-3-3-3h-3c-.55228475 0-1-.4477153-1-1v-6h12.586l-1.431 1.431c-.4240564.4230145-.6361983 1.0138192-.5780945 1.6099644.0581038.5961451.380336 1.1348666.8780945 1.4680356l4.25 2.833-.881 1.763c-.310674.6208445-.2771668 1.3583881.0885221 1.9485049.365689.5901169 1.0112425.948382 1.7054779.9464951h15.382v4zm-6-54c0-1.1045695.8954305-2 2-2h14c1.1045695 0 2 .8954305 2 2s-.8954305 2-2 2h-14c-1.1045695 0-2-.8954305-2-2zm.428 16.811 2.402-12.811h12.34l2.4 12.811c.330115 1.7779059 1.3384663 3.3578475 2.812 4.406l2.522 1.8c1.3139297.9398997 2.0942568 2.4555063 2.096 4.071v1.912h-32v-1.912c.00192539-1.6144253.78140001-3.1290777 2.094-4.069l2.522-1.8c1.4739675-1.0486282 2.48236822-2.6293645 2.812-4.408z" fill="#000"/></g></g></svg>