<svg id="Capa_1" enable-background="new 0 0 512 512" height="512" viewBox="0 0 512 512" width="512" xmlns="http://www.w3.org/2000/svg"><g><g><path d="m301.818 151.162c-14.838-10.131-42.925-21.057-41.283-43.19v-22.265l-96.126-19.941-100.805 19.941v22.265c1.322 35.362-57.25 34.306-55.928 69.668v37.204l24.525 128.029-24.525 97.027v33.342c0 17.263 13.995 31.258 31.258 31.258h246.272c17.263 0 31.258-13.995 31.258-31.258l-16.688-166.114 16.688-92.284v-37.204c-.001-10.759-5.533-20.761-14.646-26.478z" fill="#f7e365"/><g fill="#f4d242"><path d="m83.6 117.97v-1.42c0-6.075 4.925-11 11-11h165.94v-19.84l-96.13-19.94-100.81 19.94v19.84 2.42c1.221 19.78-19.728 29.816-33.871 38.543 0-.001.001-.002.001-.003-11.98 6.148-22.498 16.798-22.05 31.13v37.204l20 82.96v-110.164c-1.326-35.367 57.245-34.303 55.92-69.67z"/><path d="m305.21 484.5h-246.28c-17.26 0-31.25-13.99-31.25-31.26v-108.979l-20 95.64v33.34c-.345 16.767 14.478 31.602 31.25 31.26h246.28c13.87 0 25.63-9.03 29.71-21.54-3.05.999-6.32 1.539-9.71 1.539z"/><path d="m27.68 297.803v46.458l5.202-24.878z"/></g><path d="m316.463 439.9h-309.108l10.325-109.999-10.325-115.057h309.108z" fill="#edf4ff"/><path d="m7.68 214.84h20v225.06h-20z" fill="#dbeaff"/><path d="m220.931 307.687h-34.837c-1.105 0-2-.895-2-2v-34.837c0-10.33-8.031-19.149-18.356-19.494-10.794-.361-19.658 8.283-19.658 18.996v35.335c0 1.105-.895 2-2 2h-36.194c-10.33 0-19.149 8.031-19.494 18.356-.361 10.794 8.283 19.658 18.996 19.658h38.692v38.194c0 10.33 8.031 19.149 18.356 19.494 10.794.361 19.658-8.283 19.658-18.996v-36.692c0-1.105.895-2 2-2h35.335c10.713 0 19.357-8.864 18.996-19.658-.345-10.324-9.164-18.356-19.494-18.356z" fill="#df646e"/><path d="m169.09 402.97c-1.56.34-3.19.48-4.86.41-10.26-.45-18.15-9.32-18.15-19.58v-36.1c0-1.105-.895-2-2-2h-36.69c-10.78 0-19.47-8.98-18.99-19.87.05-1.02.17-2.01.38-2.98 3.49 4.19 8.74 6.85 14.61 6.85h56.69c1.105 0 2 .895 2 2v56.1c0 6.01 2.7 11.54 7.01 15.17z" fill="#dc4955"/><path d="m162.29 251.55c-.137.914-.211 1.846-.21 2.8v51.34c0 1.1-.9 2-2 2h-16c1.11 0 2-.9 2-2v-35.34c-.047-6.226 3.203-12.303 8.38-15.75 0 0 0-.01.01-.01 2.335-1.585 5.023-2.621 7.82-3.04z" fill="#dc4955"/><path d="m316.46 473.24c0 16.59-12.91 30.15-29.22 31.19-18.37-15.51-30.08-38.68-30.19-64.53h56.06z" fill="#f4d242"/><path d="m316.46 234.93v204.97h-59.41v-123.94c0-36.51 23.15-67.71 55.54-79.71 1.27-.47 2.56-.91 3.87-1.32z" fill="#dbeaff"/><path d="m406.97 378.7v60.84c0 35.88-29.08 64.96-64.96 64.96-12.697 0-24.543-3.642-34.55-9.938-18.27-11.495-20.705-30.635-20.705-53.818l-9.705-62.044 64.96-12.679z" fill="#dbeaff"/><path d="m406.97 315.96v62.74h-129.92v-62.74c0-35.88 29.08-64.96 64.96-64.96 17.94 0 34.18 7.27 45.94 19.02 11.75 11.76 19.02 28 19.02 45.94z" fill="#df646e"/><path d="m352.01 503.73c-3.26.51-6.6.77-10 .77-35.88 0-64.96-29.08-64.96-64.96v-60.84l9.705-12.679 10.295 12.679v60.84c0 32.48 23.83 59.38 54.96 64.19z" fill="#bed8fb"/><path d="m352.01 251.77c-31.13 4.81-54.96 31.71-54.96 64.19v62.74h-20v-62.74c0-35.88 29.08-64.96 64.96-64.96 3.4 0 6.74.26 10 .77z" fill="#dc4955"/><path d="m406.97 342.5v36.2h-51.19c12.19-17.38 30.21-30.4 51.19-36.2z" fill="#dc4955"/><path d="m406.97 378.7v60.84c0 26.64-16.03 49.54-38.98 59.56-17.85-16.9-29-40.81-29-67.27 0-19.75 6.21-38.08 16.79-53.13z" fill="#bed8fb"/><path d="m431.669 504.5c-40.137 0-67.987-32.538-67.987-72.675s27.85-72.674 67.987-72.674 72.675 32.538 72.675 72.675-32.538 72.674-72.675 72.674z" fill="#edf4ff"/><path d="m469.1 494.12c-10.93 6.59-23.74 10.38-37.43 10.38-35.289 0-64.704-25.151-71.298-58.498-.906-4.584 5.617-9.327 5.617-14.177 0-4.853-6.523-9.59-5.616-14.176 6.125-30.97 31.924-54.87 63.837-58.118-21.1 12.72-35.22 35.86-35.22 62.3 0 40.13 32.54 72.67 72.68 72.67 2.51-.001 4.99-.131 7.43-.381z" fill="#dbeaff"/><path d="m504.34 431.83c0 4.85-.47 9.59-1.39 14.17h-142.57c-.923-4.556 3.302-9.368 3.302-14.175 0-4.81-4.224-9.615-3.302-14.175h142.57c.91 4.59 1.39 9.33 1.39 14.18z" fill="#dbeaff"/><path d="m393.11 446h-32.73c-1.855-9.328-1.85-19.024 0-28.35h28.73c-.08 1.39-.12 2.78-.12 4.18 0 8.47 1.45 16.61 4.12 24.17z" fill="#bed8fb"/><path d="m268.08 85.547h-28.75l-7.233-6.504-7.767 6.504h-31.37l-7.233-6.504-7.767 6.504h-31.37l-6.036-6.504-8.964 6.504h-31.36l-8.187-6.504-6.813 6.504h-29.17c-5.523 0-10-4.477-10-10v-58.047c0-5.523 4.477-10 10-10h29.17l7.29 5.67 7.71-5.67h31.36l7.29 5.67 7.71-5.67h31.37l7.29 5.67 7.71-5.67h31.37l7.29 5.67 7.71-5.67h28.75c5.523 0 10 4.477 10 10v58.047c0 5.522-4.477 10-10 10z" fill="#edf4ff"/><g fill="#dbeaff"><path d="m66.06 17.5v58.05c0 5.52 4.48 10 10 10h-20c-5.52 0-10-4.48-10-10v-58.05c0-5.52 4.48-10 10-10h20c-5.52 0-10 4.48-10 10z"/><path d="m85.23 7.5h15v78.05h-15z"/><path d="m131.59 7.5h15v78.05h-15z"/><path d="m177.96 7.5h15v78.05h-15z"/><path d="m224.33 7.5h15v78.05h-15z"/></g></g><g><path d="m166.278 243.871c-14.681-.972-28.02 11.781-27.698 26.48v29.836h-30.596c-14.557 0-26.45 11.12-27.076 25.315-.975 14.678 11.783 28.021 26.48 27.698h31.191v30.595c0 14.558 11.12 26.451 25.315 27.077 14.639.99 28.037-11.789 27.698-26.48v-31.191h29.836c14.698.323 27.456-13.02 26.48-27.697-.626-14.196-12.52-25.316-27.077-25.316h-29.239v-29.239c.002-14.558-11.119-26.452-25.314-27.078zm54.555 71.317c6.4 0 11.824 4.924 12.091 10.978.426 6.382-5.108 12.174-11.494 12.036h-37.336c-4.143 0-7.5 3.357-7.5 7.5v38.691c.135 6.391-5.646 11.912-12.037 11.494-6.053-.267-10.977-5.69-10.977-12.091v-38.095c0-4.143-3.357-7.5-7.5-7.5h-38.691c-6.387.138-11.92-5.654-11.494-12.037.267-6.053 5.69-10.977 12.09-10.977h38.096c4.143 0 7.5-3.357 7.5-7.5v-37.336c-.13-6.388 5.635-11.919 12.037-11.494 6.053.267 10.977 5.69 10.977 12.091v36.739c0 4.143 3.357 7.5 7.5 7.5h36.738z"/><path d="m431.669 351.651c-5.905 0-11.656.66-17.2 1.878v-37.57c0-6.368-.828-12.688-2.46-18.784-1.072-4.002-5.188-6.375-9.185-5.306-4.002 1.071-6.377 5.184-5.306 9.185 1.294 4.832 1.95 9.847 1.95 14.905v42.466c-7.374 3.247-14.163 7.574-20.178 12.778h-94.74v-55.244c0-31.683 25.776-57.459 57.459-57.459 14.723 0 28.726 5.563 39.428 15.662 3.012 2.842 7.759 2.704 10.603-.308 2.843-3.013 2.705-7.76-.308-10.603-13.498-12.737-31.156-19.752-49.723-19.752-6.228 0-12.275.791-18.046 2.276v-68.135c0-13.424-6.789-25.697-18.159-32.831l-26.638-16.713c-6.971-4.373-11.132-11.896-11.132-20.124v-14.925h.045c9.649 0 17.5-7.851 17.5-17.5v-58.047c0-9.649-7.851-17.5-17.5-17.5h-212.02c-9.649 0-17.5 7.851-17.5 17.5v12.888c0 4.143 3.357 7.5 7.5 7.5s7.5-3.357 7.5-7.5v-12.888c0-1.379 1.121-2.5 2.5-2.5h29.169v63.047h-29.169c-1.379 0-2.5-1.121-2.5-2.5v-10.159c0-4.143-3.357-7.5-7.5-7.5s-7.5 3.357-7.5 7.5v10.159c0 9.649 7.851 17.5 17.5 17.5h.045v14.925c0 8.228-4.161 15.751-11.131 20.124l-26.639 16.713c-11.37 7.134-18.158 19.408-18.158 32.831-.033 25.755.014 159.363 0 188.013 0 4.143 3.357 7.5 7.5 7.5s7.5-3.357 7.5-7.5v-143.309h195.554c4.143 0 7.5-3.357 7.5-7.5s-3.357-7.5-7.5-7.5h-195.554v-29.704c0-8.229 4.161-15.752 11.132-20.125l26.638-16.713c11.371-7.135 18.159-19.407 18.159-32.83v-14.765h181.931v14.765c0 13.423 6.789 25.696 18.159 32.831l26.639 16.713c6.97 4.372 11.131 11.896 11.131 20.124v29.704h-63.235c-4.143 0-7.5 3.357-7.5 7.5s3.357 7.5 7.5 7.5h63.233v29.164c-23.377 12.035-39.413 36.398-39.413 64.452v116.44h-254.374v-31.748c0-4.143-3.357-7.5-7.5-7.5s-7.5 3.357-7.5 7.5c-.016 19.189-.034 53.53 0 72.59 0 21.371 17.386 38.758 38.757 38.758h246.272c8.672 0 16.904-2.839 23.653-8.061 9.942 5.139 21.208 8.061 33.151 8.061 15.827 0 31.089-5.152 43.612-14.602 13.042 9.185 28.919 14.602 46.048 14.602 44.209 0 80.175-35.966 80.175-80.175 0-44.208-35.966-80.174-80.175-80.174zm-253.709-273.604h-31.366v-63.047h31.366zm15-63.047h31.366v63.047h-31.366zm77.62 2.5v58.047c0 1.379-1.121 2.5-2.5 2.5h-28.754v-63.047h28.754c1.379 0 2.5 1.121 2.5 2.5zm-170.352-2.5h31.365v63.047h-31.365zm266.266 416.825c0-2.253.115-4.479.34-6.674h129.67c.452 4.376.452 8.972 0 13.349h-129.67c-.225-2.195-.34-4.422-.34-6.675zm126.63-21.674h-122.91c8.954-25.312 33.115-43.5 61.455-43.5s52.501 18.189 61.455 43.5zm-207.918 86.849h-246.273c-13.101 0-23.758-10.658-23.758-23.758v-25.842h254.809c2.052 18.934 11.429 35.694 25.229 47.399-3.095 1.439-6.492 2.201-10.007 2.201zm-.655-57.459v-53.338h81.243c-9.004 12.96-14.3 28.681-14.3 45.622 0 21.531 8.547 41.092 22.407 55.51-9.388 6.272-20.453 9.665-31.892 9.665-31.682 0-57.458-25.776-57.458-57.459zm147.118 57.459c-28.34 0-52.501-18.188-61.455-43.5h122.91c-8.955 25.312-33.115 43.5-61.455 43.5z"/></g></g></svg>