<svg height="512" viewBox="0 0 46 60" width="512" xmlns="http://www.w3.org/2000/svg"><g id="Page-1" fill="none" fill-rule="evenodd"><g id="015---Crushed-Can" fill-rule="nonzero"><path id="Shape" d="m43 7c-.0081672 1.10116878-.8988312 1.99183278-2 2h-36c-1.10320187-.0032948-1.9967052-.89679813-2-2 .00816722-1.10116878.89883122-1.99183278 2-2h36c1.1032019.0032948 1.9967052.89679813 2 2z" fill="#7f8e94"/><path id="Shape" d="m41 5h-3c1.1032019.0032948 1.9967052.89679813 2 2-.0081672 1.10116878-.8988312 1.99183278-2 2h3c1.1011688-.00816722 1.9918328-.89883122 2-2-.0032948-1.10320187-.8967981-1.9967052-2-2z" fill="#545c60"/><path id="Shape" d="m44.3 18.6-6.3 5.4 4.3 5.17c.453566.53678.7016554 1.2172539.7 1.92v2.82c.0016554.7027461-.246434 1.38322-.7 1.92l-4.3 5.17 5.49 3.14c.9338636.53247 1.5102944 1.5249998 1.51 2.6v7.26l-2.8 3.5c-.7585692.9474531-1.9062892 1.4992415-3.12 1.5h-32.16c-1.2137108-.0007585-2.36143084-.5525469-3.12-1.5l-2.8-3.5v-7.26c-.00029437-1.0750002.57613641-2.06753 1.51-2.6l5.49-3.14-4.3-5.17c-.45356598-.53678-.70165543-1.2172539-.7-1.92v-2.82c-.00165543-.7027461.24643402-1.38322.7-1.92l4.3-5.17-6.3-5.4c-.44188541-.3818078-.69711512-.9360209-.7-1.52v-2.38c-.00077143-.4547535.15454648-.8959976.44-1.25l3.56-4.45h36l3.56 4.45c.2854535.3540024.4407714.7952465.44 1.25v2.38c-.0028849.5839791-.2581146 1.1381922-.7 1.52z" fill="#f44335"/><path id="Shape" d="m45 17.08v-2.38c.0007714-.4547535-.1545465-.8959976-.44-1.25l-3.56-4.45h-3l3.56 4.45c.2854535.3540024.4407714.7952465.44 1.25v2.38c-.0028849.5839791-.2581146 1.1381922-.7 1.52l-6.3 5.4 4.3 5.17c.453566.53678.7016554 1.2172539.7 1.92v2.82c.0016554.7027461-.246434 1.38322-.7 1.92l-4.3 5.17 5.49 3.14c.9338636.53247 1.5102944 1.5249998 1.51 2.6v7.26l-2.8 3.5c-.7585692.9474531-1.9062892 1.4992415-3.12 1.5h3c1.2137108-.0007585 2.3614308-.5525469 3.12-1.5l2.8-3.5v-7.26c.0002944-1.0750002-.5761364-2.06753-1.51-2.6l-5.49-3.14 4.3-5.17c.453566-.53678.7016554-1.2172539.7-1.92v-2.82c.0016554-.7027461-.246434-1.38322-.7-1.92l-4.3-5.17 6.3-5.4c.4418854-.3818078.6971151-.9360209.7-1.52z" fill="#c81e1e"/><path id="Shape" d="m38 15h-36.87c-.55228475 0-1-.4477153-1-1s.44771525-1 1-1h36.87c.5522847 0 1 .4477153 1 1s-.4477153 1-1 1z" fill="#ffdc00"/><path id="Shape" d="m38 55h-37c-.55228475 0-1-.4477153-1-1s.44771525-1 1-1h37c.5522847 0 1 .4477153 1 1s-.4477153 1-1 1z" fill="#ffdc00"/><path id="Shape" d="m0 46.741v7.259c-.0001065.2271603.0771313.4475878.219.625l2.8 3.5c.9468086 1.1877256 2.38407655 1.8781887 3.903 1.875h32.156c1.5180075.0018833 2.9539516-.6888426 3.9-1.876l2.8-3.5c.142732-.1767445.2210287-.3968214.222-.624v-7.259c-.001766-1.4351045-.7706906-2.759745-2.016-3.473l-4.452-2.544 3.541-4.249c.5984708-.7192868.9264175-1.6252968.927-2.561v-2.828c-.0005825-.9357032-.3285292-1.8417132-.927-2.561l-3.673-4.407 5.553-4.76c.6654255-.5696182 1.0480314-1.4020691 1.047-2.278v-2.38c.0000924-.6811379-.2316082-1.3420313-.657-1.874l-2.671-3.337c1.0944254-.73640652 1.5794144-2.10130272 1.1950372-3.36317266s-1.5479238-2.12460699-2.8670372-2.12582734h-28.65l-4.725-3.781c-.43133439-.34517795-1.06082202-.27533436-1.40599998.15600002s-.27533439 1.06082201.15599998 1.40599998l2.775 2.219h-4.15c-1.31911337.00122035-2.48266.8639574-2.86703722 2.12582734-.38437721 1.26186994.10061179 2.62676614 1.19503722 3.36317266l-2.67 3.338c-.42504367.5318411-.657026 1.1921798-.658 1.873v2.38c-.00022382.8757545.3822342 1.7078838 1.047 2.278l5.554 4.76-3.674 4.407c-.59847084.7192868-.92641747 1.6252968-.927 2.561v2.828c.00058253.9357032.32852916 1.8417132.927 2.561l3.541 4.249-4.452 2.544c-1.24546072.7131028-2.01444125 2.0378395-2.016 3.473zm5-40.741h36c.5522847 0 1 .44771525 1 1s-.4477153 1-1 1h-36c-.55228475 0-1-.44771525-1-1s.44771525-1 1-1zm-1.992 39 4.722-2.7 2.47 3.3c.2143593.2858125.5649147.4355548.9196153.3928204.3547005-.0427344.6596588-.2714531.8-.6s.0947441-.7070079-.1196153-.9928204l-3-4c-.006-.008-.015-.011-.021-.018s-.006-.016-.011-.022l-4.305-5.166c-.29864931-.3597499-.46239628-.8124414-.463-1.28v-2.828c.00060372-.4675586.16435069-.9202501.463-1.28l3.665-4.4 5.232 4.36c.2731981.2390052.6544583.3111994.9961244.1886229.341666-.1225766.5900801-.4206735.6490353-.7788424.0589551-.3581689-.0808074-.7201604-.3651597-.9457805l-5.989-4.991-6.3-5.4c-.22224477-.1895879-.35047716-.4668767-.351-.759v-2.38c-.0001065-.2271603.0771313-.4475878.219-.625l3.261-4.075h35.039l3.262 4.078c.1412272.1766082.2184267.3958689.219.622v2.38c-.0000227.2918017-.1274998.5690371-.349.759l-6.3 5.4-5.991 4.993c-.2843523.2256201-.4241148.5876116-.3651597.9457805.0589552.3581689.3073693.6562658.6490353.7788424.3416661.1225765.7229263.0503823.9961244-.1886229l5.232-4.36 3.664 4.4c.299164.3587434.4633222.810886.464 1.278v2.828c-.0002105.4678013-.1643966.9207286-.464 1.28l-4.3 5.166c-.005.006-.006.015-.011.022s-.015.01-.021.018l-3 4c-.2143594.2858125-.2599565.6642734-.1196153.9928203s.4452995.5572656.8.6000001c.3547006.0427344.705256-.1070079.9196153-.3928204l2.47-3.294 4.718 2.694c.6238981.3575798 1.0085218 1.0218951 1.008 1.741v6.908l-2.579 3.225c-.5683549.7130801-1.4311296 1.1277128-2.343 1.126h-32.156c-.91148434.0022399-1.77404094-.4120966-2.342-1.125l-2.58-3.226v-6.908c-.00052182-.7191049.38410186-1.3834202 1.008-1.741z" fill="#000"/></g></g></svg>