<svg height="512" viewBox="0 0 60 60" width="512" xmlns="http://www.w3.org/2000/svg"><g id="Page-1" fill="none" fill-rule="evenodd"><g id="044---Cardboard-Waste" fill-rule="nonzero"><rect id="Rectangle-path" fill="#9e9e9e" height="6" rx="1" width="58" x="1" y="1"/><path id="Shape" d="m58 1h-3c.5522847 0 1 .44771525 1 1v4c0 .55228475-.4477153 1-1 1h3c.5522847 0 1-.44771525 1-1v-4c0-.55228475-.4477153-1-1-1z" fill="#707070"/><path id="Shape" d="m51 55v1c0 1.6568542-1.3431458 3-3 3h-36c-1.6568542 0-3-1.3431458-3-3v-1z" fill="#607d8b"/><path id="Shape" d="m48 55v1c0 1.6568542-1.3431458 3-3 3h3c1.6568542 0 3-1.3431458 3-3v-1z" fill="#37474f"/><path id="Rectangle-path" d="m9 51h42v4h-42z" fill="#9e9e9e"/><path id="Rectangle-path" d="m48 51h3v4h-3z" fill="#707070"/><path id="Shape" d="m57 7-6 44h-42l-6-44z" fill="#7f8e94"/><path id="Shape" d="m54 7-6 44h3l6-44z" fill="#545c60"/><path id="Shape" d="m30 29-3.51 4.39c-.2881515.3579675-.7831789.4734739-1.2.28l-8.29-3.82-2.84-1.31c-.2813461-.1287268-.4872623-.3804346-.5576901-.6817088-.0704277-.3012742.0025655-.6181816.1976901-.8582912l3.2-4z" fill="#ffdc00"/><path id="Shape" d="m45.84 28.54-2.84 1.31-8.29 3.82c-.4168211.1934739-.9118485.0779675-1.2-.28l-3.51-4.39 13-6 3.2 4c.1951246.2401096.2681178.557017.1976901.8582912-.0704278.3012742-.276344.552982-.5576901.6817088z" fill="#ffdc00"/><path id="Shape" d="m30 18-13 5-3.31-4.96c-.1661911-.2544082-.2086102-.5702597-.1154317-.8595015.0931786-.2892417.3119891-.5209387.5954317-.6304985l11.08-4.26c.4367241-.1671453.9309703-.0093188 1.19.38z" fill="#ffeb3a"/><path id="Shape" d="m46.31 18.04-3.31 4.96-13-5 3.56-5.33c.2590297-.3893188.7532759-.5471453 1.19-.38l11.08 4.26c.2834426.1095598.5022531.3412568.5954317.6304985.0931785.2892418.0507594.6050933-.1154317.8595015z" fill="#ffeb3a"/><path id="Shape" d="m43 29.85v9.55c.000487.4128236-.2542433.7829785-.64.93l-11.97 4.6c-.2486383.0987079-.5268212.0914824-.77-.02l-12.04-5.56c-.3527061-.1607551-.5793137-.5123876-.58-.9v-8.6l8.29 3.82c.4168211.1934739.9118485.0779675 1.2-.28l3.51-4.39 3.51 4.39c.2881515.3579675.7831789.4734739 1.2.28z" fill="#ff9801"/><path id="Shape" d="m43 23-13 6-13-6 13-5z" fill="#ff9801"/><g fill="#000"><path id="Shape" d="m58 0h-56c-1.1045695 0-2 .8954305-2 2v4c0 1.1045695.8954305 2 2 2h.127l5.873 43.067v4.933c0 2.209139 1.790861 4 4 4h36c2.209139 0 4-1.790861 4-4v-4.933l5.873-43.067h.127c1.1045695 0 2-.8954305 2-2v-4c0-1.1045695-.8954305-2-2-2zm-8 54h-40v-2h40zm-2 4h-36c-1.1045695 0-2-.8954305-2-2h40c0 1.1045695-.8954305 2-2 2zm2.127-8h-40.254l-5.728-42h51.71zm-48.127-44v-4h56v4z"/><path id="Shape" d="m12.861 18.594 2.9 4.352-2.745 3.432c-.3840045.4802283-.5257679 1.1104018-.3844137 1.7088144.1413543.5984125.5501131 1.0985443 1.1084137 1.3561856l2.26 1.043v7.959c.0018341.7798654.4548302 1.4882078 1.162 1.817l12.038 5.554c.2369905.106279.492413.1653795.752.174.018 0 .033.01.051.01h.016.02c.2450482.0000742.4880445-.0446615.717-.132l11.967-4.6c.7681043-.302322 1.2741353-1.0425458 1.277-1.868v-8.914l2.26-1.043c.5581376-.2578384.9666711-.7580574 1.1078254-1.35645.1411542-.5983926-.0007581-1.2284557-.3848254-1.70855l-2.745-3.432 2.9-4.352c.3368941-.5053605.425893-1.1364291.2418996-1.7152497s-.6210412-1.0426714-1.1878996-1.2607503l-11.086-4.264c-.8731991-.3399478-1.8652522-.0246732-2.382.757l-2.724 4.089-2.724-4.085c-.5169392-.7814004-1.5085434-1.0969487-2.382-.758l-11.086 4.261c-.5670307.2178677-1.0043149.6816293-1.1885106 1.2604748-.1841958.5788454-.0953377 1.210032.2415106 1.7155252zm4.431 5.642 11.129 5.137-2.713 3.391-11.129-5.136zm12.708-5.165 10.432 4.013-10.432 4.816-10.432-4.816zm12 20.329-11 4.229v-7.629c0-.5522847-.4477153-1-1-1s-1 .4477153-1 1v7.522l-11-5.077v-7.036l6.871 3.171c.8349785.3856065 1.8253018.1520552 2.4-.566l2.729-3.414 2.73 3.413c.5746982.7180552 1.5650215.9516065 2.4.566l6.87-3.17zm-7.708-6.634-2.713-3.391 11.129-5.137 2.713 3.391zm.1-19.543 11.087 4.263-2.863 4.295-11.091-4.266zm-8.776 0 2.863 4.294-11.091 4.262-2.863-4.294z"/></g></g></g></svg>