<svg height="512" viewBox="0 0 60 60" width="512" xmlns="http://www.w3.org/2000/svg"><g id="Page-1" fill="none" fill-rule="evenodd"><g id="053---Crushed-Bottle" fill-rule="nonzero"><path id="Shape" d="m27 16v38c0 2.152152-1.3771505 4.0628463-3.4188612 4.7434165s-4.2898476-.0216949-5.5811388-1.7434165c-.9442719 1.2590292-2.4262135 2-4 2s-3.0557281-.7409708-4-2c-1.29129122 1.7217216-3.53942813 2.4239867-5.58113883 1.7434165s-3.41886117-2.5912645-3.41886117-4.7434165v-38c0-3.3137085 2.6862915-6 6-6h2c1.1032019-.0032948 1.9967052-.89679813 2-2v-3h6v3c.0032948 1.10320187.8967981 1.9967052 2 2h2c3.3137085 0 6 2.6862915 6 6z" fill="#ffdc00"/><path id="Shape" d="m21 10h-2c-1.1032019-.0032948-1.9967052-.89679813-2-2v-3h-3v3c.0032948 1.10320187.8967981 1.9967052 2 2h2c3.3137085 0 6 2.6862915 6 6v38c-.0058806 2.1858093-1.4350292 4.1128287-3.525 4.753 1.5197451.4973751 3.1859151.2342444 4.4784249-.7072574 1.2925098-.9415017 2.0539253-2.446695 2.0465751-4.0457426v-38c0-3.3137085-2.6862915-6-6-6z" fill="#fec108"/><rect id="Rectangle-path" fill="#7f8e94" height="4" rx="1" width="8" x="10" y="1"/><path id="Shape" d="m17 1h-3c.5522847 0 1 .44771525 1 1v2c0 .55228475-.4477153 1-1 1h3c.5522847 0 1-.44771525 1-1v-2c0-.55228475-.4477153-1-1-1z" fill="#545c60"/><path id="Rectangle-path" d="m1 22h26v22h-26z" fill="#f5f5f5"/><path id="Rectangle-path" d="m24 22h3v22h-3z" fill="#cfd8dc"/><path id="Shape" d="m57 29 1.669 5.006c.2066328.622901.0945193 1.3075409-.3 1.832l-2.369 3.162 2.669 5.338c.213823.427093.2677405.9166072.152 1.38l-.821 3.282 1 3v1.785c.0427187 2.6214543-1.8915264 4.8562567-4.492 5.19-1.7447572.1759852-3.4545362-.5730861-4.508-1.975-.9442719 1.2590292-2.4262135 2-4 2s-3.0557281-.7409708-4-2c-1.0534638 1.4019139-2.7632428 2.1509852-4.508 1.975-2.6004736-.3337433-4.5347187-2.5685457-4.492-5.19v-1.785l1-3-.821-3.282c-.1157405-.4633928-.061823-.952907.152-1.38l2.669-5.338-2.371-3.162c-.3945193-.5244591-.5066328-1.209099-.3-1.832l1.671-5.006-1.414-1.414c-.3750987-.3749855-.5858867-.8836104-.586-1.414v-2.172c0-3.3137085 2.6862915-6 6-6h2c1.1032019-.0032948 1.9967052-.8967981 2-2v-3h6v3c.0032948 1.1032019.8967981 1.9967052 2 2h2c3.3137085 0 6 2.6862915 6 6v2.172c-.0001133.5303896-.2109013 1.0390145-.586 1.414z" fill="#02a9f4"/><path id="Shape" d="m59 26.172v-2.172c0-3.3137085-2.6862915-6-6-6h-2c-1.1032019-.0032948-1.9967052-.8967981-2-2v-3h-3v3c.0032948 1.1032019.8967981 1.9967052 2 2h2c3.3137085 0 6 2.6862915 6 6v2.172c-.0001133.5303896-.2109013 1.0390145-.586 1.414l-1.414 1.414 1.669 5.006c.2066328.622901.0945193 1.3075409-.3 1.832l-2.369 3.162 2.669 5.338c.213823.427093.2677405.9166072.152 1.38l-.821 3.282 1 3v1.785c.0192184 2.2401639-1.3920373 4.2431976-3.508 4.979.6505455.2072395 1.3366421.2790483 2.016.211 2.6004736-.3337433 4.5347187-2.5685457 4.492-5.19v-1.785l-1-3 .821-3.282c.1157405-.4633928.061823-.952907-.152-1.38l-2.669-5.338 2.371-3.162c.3945193-.5244591.5066328-1.209099.3-1.832l-1.671-5.006 1.414-1.414c.3750987-.3749855.5858867-.8836104.586-1.414z" fill="#0377bc"/><rect id="Rectangle-path" fill="#7f8e94" height="4" rx="1" width="8" x="42" y="9"/><path id="Shape" d="m49 9h-3c.5522847 0 1 .44771525 1 1v2c0 .5522847-.4477153 1-1 1h3c.5522847 0 1-.4477153 1-1v-2c0-.55228475-.4477153-1-1-1z" fill="#545c60"/><ellipse id="Oval" cx="14" cy="33" fill="#02a9f4" rx="5" ry="6"/><g fill="#3f51b5"><path id="Shape" d="m41 40h-5c-.5522847 0-1-.4477153-1-1s.4477153-1 1-1h5c.5522847 0 1 .4477153 1 1s-.4477153 1-1 1z"/><path id="Shape" d="m49 50h-15c-.5522847 0-1-.4477153-1-1s.4477153-1 1-1h15c.5522847 0 1 .4477153 1 1s-.4477153 1-1 1z"/><path id="Shape" d="m58 50h-5c-.5522847 0-1-.4477153-1-1s.4477153-1 1-1h5c.5522847 0 1 .4477153 1 1s-.4477153 1-1 1z"/><path id="Shape" d="m56 40h-11c-.5522847 0-1-.4477153-1-1s.4477153-1 1-1h11c.5522847 0 1 .4477153 1 1s-.4477153 1-1 1z"/><path id="Shape" d="m49 36h-15.74c-.5522847 0-1-.4477153-1-1s.4477153-1 1-1h15.74c.5522847 0 1 .4477153 1 1s-.4477153 1-1 1z"/><path id="Shape" d="m43 32c-.0822423-.0001749-.1641648-.0102473-.244-.03l-8-2c-.5320593-.1373346-.8536288-.6782442-.7200974-1.2112708.1335314-.5330265.6721308-.8584506 1.2060974-.7287292l8 2c.4895717.1226969.8109744.5909795.7494367 1.0919267-.0615377.5009473-.4867242.8775169-.9914367.8780733z"/><path id="Shape" d="m49 32c-.5047125-.0005564-.929899-.377126-.9914367-.8780733-.0615377-.5009472.259865-.9692298.7494367-1.0919267l8-2c.5339666-.1297214 1.072566.1957027 1.2060974.7287292.1335314.5330266-.1880381 1.0739362-.7200974 1.2112708l-8 2c-.0798352.0197527-.1617577.0298251-.244.03z"/><path id="Shape" d="m33.139 45.97c-.5157092.0031386-.949225-.3864226-1.0010282-.899533s.2950985-.9814619.8010282-1.081467l9.861-1.969c.5317506-.08744 1.0371542.2622052 1.1428396.7906321s-.2263622 1.0455623-.7508396 1.1693679l-9.86 1.97c-.06348.0132502-.1281519.019952-.193.02z"/><path id="Shape" d="m58.861 45.97c-.067187.0004396-.1342304-.0062648-.2-.02l-9.861-1.97c-.3606322-.0593016-.6601885-.3106176-.7812685-.6554537s-.0443954-.728259.2-1 .6175689-.388511.9732685-.3045463l9.86 1.969c.5059297.1000051.8528314.5683566.8010282 1.081467s-.485319.9026716-1.0010282.899533z"/><path id="Shape" d="m58.74 36h-5.74c-.5522847 0-1-.4477153-1-1s.4477153-1 1-1h5.74c.5522847 0 1 .4477153 1 1s-.4477153 1-1 1z"/></g><path id="Shape" d="m6 60c1.47565348-.0042232 2.89863988-.5488712 4-1.531 2.276034 2.0412614 5.723966 2.0412614 8 0 1.7631686 1.5770265 4.2883746 1.9708933 6.4480589 1.0057304 2.1596844-.965163 3.550705-3.1091915 3.5519411-5.4747304v-38c-.0044086-3.8641657-3.1358343-6.99559136-7-7h-2c-.5522847 0-1-.44771525-1-1v-2.278c.6167513-.35441258.997855-1.01067322 1-1.722v-2c0-1.1045695-.8954305-2-2-2h-6c-1.1045695 0-2 .8954305-2 2v2c.002145.71132678.38324874 1.36758742 1 1.722v2.278c0 .55228475-.44771525 1-1 1h-2c-3.86416566.00440864-6.99559136 3.1358343-7 7v38c.00330738 3.3123376 2.68766243 5.9966926 6 6zm-4-26h6.068c.419 3.386 2.915 6 5.932 6s5.513-2.614 5.932-6h6.068v9h-24zm8-1c0-2.757 1.794-5 4-5s4 2.243 4 5-1.794 5-4 5-4-2.243-4-5zm16-1h-6.068c-.419-3.386-2.915-6-5.932-6s-5.513 2.614-5.932 6h-6.068v-9h24zm-4 26c-1.2580307-.0042139-2.4418105-.5961037-3.2-1.6-.1888544-.2518058-.4852427-.4-.8-.4s-.6111456.1481942-.8.4c-.7554175 1.0072234-1.9409708 1.6-3.2 1.6s-2.4445825-.5927766-3.2-1.6c-.1967934-.2391708-.4902738-.3777478-.8-.3777478-.30972619 0-.60320661.138577-.8.3777478-1.03303298 1.3773773-2.83154251 1.9391894-4.46491106 1.3947332-1.63336856-.5444562-2.73508894-2.0730116-2.73508894-3.7947332v-9h24v9c0 2.209139-1.790861 4-4 4zm-11-56h6v2h-6zm-4 9h2c1.6568542 0 3-1.34314575 3-3v-2h4v2c0 1.65685425 1.3431458 3 3 3h2c2.7600532.0033061 4.9966939 2.2399468 5 5v5h-24v-5c.00330612-2.7600532 2.23994685-4.9966939 5-5z" fill="#000"/><path id="Shape" d="m53 17h-2c-.5522847 0-1-.4477153-1-1v-2.278c.6167513-.3544126.997855-1.0106732 1-1.722v-2c0-1.1045695-.8954305-2-2-2h-6c-1.1045695 0-2 .8954305-2 2v2c.002145.7113268.3832487 1.3675874 1 1.722v2.278c0 .5522847-.4477153 1-1 1h-2c-3.8641657.0044086-6.9955914 3.1358343-7 7v2.172c-.0022673.7960678.3142872 1.5599041.879 2.121l.977.978-1.473 4.418c-.3114311.9340031-.1447507 1.9613676.446 2.749l2 2.667-2.392 4.786c-.3204918.6403533-.4013631 1.3742248-.228 2.069l.75 3-.908 2.724c-.0338571.1019116-.0510777.2086115-.051.316v1.785c-.030259 3.1307338 2.2873087 5.7886526 5.393 6.185 1.6798301.1761686 3.3554786-.3690533 4.61-1.5 2.2752873 2.03722 5.7187127 2.03722 7.994 0 1.0959338.9876423 2.5197036 1.5329158 3.995 1.53.204 0 .409-.0103333.615-.031 3.1053091-.3963036 5.4227489-3.0536461 5.393-6.184v-1.785c.0000777-.1073885-.0171429-.2140884-.051-.316l-.908-2.724.75-3c.1733631-.6947752.0924918-1.4286467-.228-2.069l-2.392-4.791 2-2.667c.5920721-.7870387.7592105-1.8149208.447-2.749l-1.473-4.418.977-.978c.5631125-.5600405.8791959-1.3218088.878-2.116v-2.172c-.0044086-3.8641657-3.1358343-6.9955914-7-7zm-10-7h6v2h-6zm15 16.172c-.0010349.2649991-.1062805.5189537-.293.707l-1.414 1.414c-.2678526.2676753-.3615324.6636852-.242 1.023l1.669 5.006c.1035989.3112889.0479182.6535943-.149.916l-2.371 3.162c-.2289957.3018713-.2677128.7072387-.1 1.047l2.669 5.338c.1074907.2137091.1348098.458871.077.691l-.821 3.282c-.0461262.1842207-.0388422.3777673.021.558l.954 2.846v1.623c.0387028 2.1063398-1.5047451 3.9084614-3.592 4.194-1.3967009.1450454-2.7668618-.4545898-3.608-1.579-.1888544-.2518058-.4852427-.4-.8-.4s-.6111456.1481942-.8.4c-.7554175 1.0072234-1.9409708 1.6-3.2 1.6s-2.4445825-.5927766-3.2-1.6c-.1967934-.2391708-.4902738-.3777478-.8-.3777478s-.6032066.138577-.8.3777478c-.8402292 1.1262984-2.2114223 1.726979-3.609 1.581-2.0876277-.2860856-3.6307917-2.0892369-3.591-4.196v-1.623l.949-2.846c.0598422-.1802327.0671262-.3737793.021-.558l-.821-3.282c-.0578098-.232129-.0304907-.4772909.077-.691l2.674-5.338c.1677128-.3397613.1289957-.7451287-.1-1.047l-2.372-3.163c-.19624-.2623419-.2515303-.6041707-.148-.915l1.669-5.006c.1195324-.3593148.0258526-.7553247-.242-1.023l-1.414-1.414c-.1867195-.1880463-.2919651-.4420009-.293-.707v-2.172c.0033061-2.7600532 2.2399468-4.9966939 5-5h2c1.6568542 0 3-1.3431458 3-3v-2h4v2c0 1.6568542 1.3431458 3 3 3h2c2.7600532.0033061 4.9966939 2.2399468 5 5z" fill="#000"/></g></g></svg>