<svg id="Capa_1" enable-background="new 0 0 512 512" height="512" viewBox="0 0 512 512" width="512" xmlns="http://www.w3.org/2000/svg"><g><g><path d="m403.115 441.235-35.144-35.143-3.535 3.535" fill="#394d5c"/><g><path d="m364.436 409.627-14.244 23.74c-1.956 3.259-1.442 7.431 1.246 10.119l14.283 14.282c2.688 2.688 6.86 3.201 10.119 1.246l23.74-14.244 3.536-3.535-35.143-35.143z" fill="#394d5c"/><path d="m386.851 424.972-3.535 3.536-23.74 14.244c-2.851 1.711-6.401 1.532-9.045-.339.268.378.57.738.907 1.074l14.283 14.282c2.688 2.688 6.86 3.201 10.119 1.246l23.74-14.244 3.535-3.535z" fill="#2c4252"/></g><g><path d="m305.864 351.055-14.244 23.74c-1.956 3.259-1.442 7.431 1.246 10.119l14.283 14.282c2.688 2.688 6.86 3.201 10.119 1.246l23.74-14.244 3.535-3.535-35.143-35.143z" fill="#394d5c"/><path d="m328.279 366.4-3.535 3.536-23.74 14.244c-2.851 1.711-6.401 1.532-9.045-.339.268.378.57.738.907 1.074l14.283 14.282c2.688 2.688 6.86 3.201 10.119 1.246l23.74-14.244 3.535-3.535z" fill="#2c4252"/></g><g><path d="m247.292 292.483-14.244 23.74c-1.956 3.259-1.442 7.431 1.246 10.119l14.282 14.282c2.688 2.688 6.86 3.201 10.119 1.246l23.74-14.244 3.535-3.535-35.143-35.143z" fill="#394d5c"/><path d="m269.707 307.828-3.535 3.536-23.74 14.244c-2.851 1.711-6.401 1.532-9.045-.339.268.378.57.738.907 1.074l14.282 14.282c2.688 2.688 6.86 3.201 10.119 1.246l23.74-14.244 3.535-3.535z" fill="#2c4252"/></g><g><path d="m159.434 204.625-14.244 23.74c-1.956 3.259-1.442 7.431 1.246 10.119l14.283 14.283c2.688 2.688 6.86 3.201 10.119 1.246l23.74-14.244 3.536-3.536-35.143-35.143z" fill="#394d5c"/><path d="m181.849 219.97-3.536 3.535-23.74 14.244c-2.851 1.711-6.401 1.532-9.045-.339.268.378.57.738.907 1.074l14.283 14.283c2.688 2.688 6.86 3.201 10.119 1.246l23.74-14.244 3.535-3.536z" fill="#2c4252"/></g><g><path d="m100.862 146.053-14.244 23.74c-1.956 3.259-1.442 7.431 1.246 10.119l14.282 14.282c2.688 2.688 6.86 3.201 10.119 1.246l23.74-14.244 3.535-3.536-35.143-35.143z" fill="#394d5c"/><path d="m123.277 161.398-3.536 3.536-23.74 14.244c-2.851 1.711-6.401 1.532-9.045-.339.268.378.57.738.907 1.074l14.282 14.282c2.688 2.688 6.86 3.201 10.119 1.246l23.74-14.244 3.535-3.536z" fill="#2c4252"/></g><g><path d="m405.436 450.628-317.573-317.573c-2.688-2.688-3.201-6.86-1.246-10.119l14.244-23.74 4.312-4.312 339.649 339.787-15.957 15.957c-6.47 6.47-16.959 6.47-23.429 0z" fill="#d0e2ed"/><path d="m428.559 418.407-15.957 15.957c-6.47 6.47-16.959 6.47-23.429 0l16.263 16.263c6.47 6.47 16.959 6.47 23.429 0l15.957-15.957z" fill="#aabfcf"/></g><path d="m294.149 140.196 21.411-15.366c9.575-6.871 23.06-1.83 25.779 9.637l5.525 23.3-26.729 26.729-35.143-35.143z" fill="#394d5c"/><path d="m463.285 373.991v-.004l-46.112-57.334c-1.958-2.434-3.561-5.133-4.763-8.016l-59.108-141.788c-1.576-3.282-3.718-6.361-6.438-9.082-4.799-4.799-10.705-7.814-16.895-9.053l-56.657-10.602c-13.135-2.458-25.219-8.829-34.668-18.278l-7.275-7.275c-15.667-15.667-22.467-38.127-18.122-59.854l3.02-15.102c1.086-5.432-.614-11.047-4.531-14.963l-5.445-5.445c-12.939-12.939-33.918-12.939-46.858 0l-58.572 58.572c-6.47 6.47-6.47 16.959 0 23.429l339.718 339.718 20.5-20.5c12.157-12.157 12.89-31.408 2.206-44.423z" fill="#118df0"/><path d="m224.259 222.593 112.951-10.269-12.033-31.286-130.6 11.873z" fill="#d0e2ed"/><path d="m282.435 280.769 79.519-7.229-12.557-31.239-96.644 8.786z" fill="#d0e2ed"/><path d="m440.579 438.914 20.5-20.5c12.156-12.156 12.89-31.407 2.205-44.422v-.004l-13.717-17.056-.056-.019c-25.11-25.11-65.822-25.11-90.933 0z" fill="#394d5c"/><path d="m440.579 438.914 20.5-20.5c12.156-12.156 12.89-31.407 2.205-44.422v-.004l-13.717-17.056-.056-.019c-25.11-25.11-65.822-25.11-90.933 0z" fill="#d0e2ed"/><path d="m463.285 373.991v-.004l-13.403-16.664c9.544 12.965 8.456 31.305-3.277 43.038l-22.289 22.289 16.263 16.263 20.5-20.5c12.157-12.156 12.89-31.407 2.206-44.422z" fill="#aabfcf"/><path d="m159.434 64.053-23.429-23.429-35.143 35.143c-6.47 6.47-6.47 16.959 0 23.429l58.572 58.572c25.879-25.879 25.878-67.837 0-93.715z" fill="#d0e2ed"/></g><g><path d="m479.65 466.357h-49.7v5" fill="#394d5c"/><g><path d="m429.95 471.357 6.715 26.859c.922 3.687 4.235 6.274 8.036 6.274h20.198c3.801 0 7.114-2.587 8.036-6.274l6.715-26.859v-5h-49.7z" fill="#394d5c"/><path d="m456.65 466.357v5l-6.715 26.859c-.806 3.226-3.443 5.609-6.635 6.156.457.078.925.119 1.401.119h20.198c3.801 0 7.114-2.587 8.036-6.274l6.715-26.859v-5h-23z" fill="#2c4252"/></g><g><path d="m347.117 471.357 6.715 26.859c.922 3.687 4.235 6.274 8.036 6.274h20.198c3.801 0 7.114-2.587 8.036-6.274l6.715-26.859v-5h-49.7z" fill="#394d5c"/><path d="m373.817 466.357v5l-6.715 26.859c-.806 3.226-3.443 5.609-6.635 6.156.457.078.925.119 1.401.119h20.198c3.801 0 7.114-2.587 8.036-6.274l6.715-26.859v-5h-23z" fill="#2c4252"/></g><g><path d="m264.283 471.357 6.715 26.859c.922 3.687 4.235 6.274 8.036 6.274h20.198c3.801 0 7.114-2.587 8.036-6.274l6.715-26.859v-5h-49.7z" fill="#394d5c"/><path d="m290.983 466.357v5l-6.715 26.859c-.806 3.226-3.443 5.609-6.635 6.156.457.078.925.119 1.401.119h20.198c3.801 0 7.114-2.587 8.036-6.274l6.715-26.859v-5h-23z" fill="#2c4252"/></g><g><path d="m140.033 471.357 6.715 26.859c.922 3.687 4.235 6.274 8.036 6.274h20.199c3.801 0 7.114-2.587 8.036-6.274l6.715-26.859v-5h-49.7v5z" fill="#394d5c"/><path d="m166.733 466.357v5l-6.715 26.859c-.806 3.226-3.443 5.609-6.635 6.156.457.078.925.119 1.401.119h20.199c3.801 0 7.114-2.587 8.036-6.274l6.715-26.859v-5h-23.001z" fill="#2c4252"/></g><g><path d="m57.2 471.357 6.715 26.859c.922 3.687 4.235 6.274 8.036 6.274h20.198c3.801 0 7.114-2.587 8.036-6.274l6.715-26.859v-5h-49.7z" fill="#394d5c"/><path d="m83.9 466.357v5l-6.715 26.859c-.807 3.226-3.443 5.609-6.635 6.156.457.078.925.119 1.401.119h20.198c3.801 0 7.114-2.587 8.036-6.274l6.715-26.859v-5h-23z" fill="#2c4252"/></g><g><path d="m487.933 471.357h-449.116c-3.801 0-7.114-2.587-8.036-6.274l-6.715-26.859v-6.097l480.433.097v22.567c.001 9.149-7.416 16.566-16.566 16.566z" fill="#d0e2ed"/><path d="m481.5 432.224v22.567c0 9.15-7.417 16.567-16.567 16.567h23c9.15 0 16.567-7.417 16.567-16.567v-22.567z" fill="#aabfcf"/></g><path d="m189.733 330.54 4.275-26.005c1.912-11.629 15.012-17.6 25.043-11.414l20.382 12.569v37.8h-49.7z" fill="#394d5c"/><path d="m474.648 376.262-.003-.003-73.147-7.936c-3.106-.337-6.148-1.111-9.036-2.3l-142.055-58.463c-3.435-1.206-7.127-1.869-10.974-1.869-6.787 0-13.095 2.044-18.348 5.545l-47.559 32.565c-11.026 7.55-24.076 11.59-37.439 11.59h-10.288c-22.157 0-42.847-11.073-55.137-29.508l-8.543-12.814c-3.073-4.609-8.245-7.377-13.784-7.377h-7.701c-18.299 0-33.133 14.834-33.133 33.133v82.833c0 9.15 7.417 16.567 16.567 16.567h480.432v-28.992c0-17.192-13.094-31.323-29.852-32.971z" fill="#118df0"/><path d="m198.576 438.224 72.608-87.13-30.631-13.613-83.953 100.743z" fill="#d0e2ed"/><path d="m280.85 438.224 51.116-61.34-30.967-13.21-62.125 74.55z" fill="#d0e2ed"/><path d="m504.5 438.224v-28.992c0-17.192-13.094-31.322-29.852-32.97l-.003-.003-21.76-2.361-.053.026c-35.511 0-64.299 28.788-64.299 64.299h115.967z" fill="#394d5c"/><path d="m504.5 438.224v-28.992c0-17.192-13.094-31.322-29.852-32.97l-.003-.003-21.76-2.361-.053.026c-35.511 0-64.299 28.788-64.299 64.299h115.967z" fill="#d0e2ed"/><path d="m474.648 376.262-.003-.003-21.261-2.306c15.917 2.419 28.115 16.157 28.115 32.749v31.522h23v-28.992c.001-17.192-13.093-31.322-29.851-32.97z" fill="#aabfcf"/><path d="m40.633 371.957h-33.133v49.7c0 9.15 7.417 16.567 16.567 16.567h82.833c0-36.598-29.669-66.267-66.267-66.267z" fill="#d0e2ed"/></g></g><g><g><g><g><g><path d="m487.933 478.858h-248.674c-4.142 0-7.5-3.357-7.5-7.5s3.358-7.5 7.5-7.5h248.674c5 0 9.067-4.067 9.067-9.067v-9.066h-463.328l4.385 17.54c.087.35.4.594.76.594h170.442c4.142 0 7.5 3.357 7.5 7.5s-3.358 7.5-7.5 7.5h-170.442c-7.256 0-13.552-4.916-15.312-11.955l-6.714-26.859c-.561-2.241-.057-4.614 1.364-6.435s3.602-2.885 5.912-2.885h480.433c4.142 0 7.5 3.357 7.5 7.5v16.566c0 13.27-10.796 24.067-24.067 24.067z"/></g><g><g><path d="m92.149 511.99h-20.198c-7.256 0-13.552-4.916-15.312-11.955l-6.714-26.858c-.56-2.241-.057-4.614 1.364-6.435 1.421-1.82 3.602-2.885 5.912-2.885h49.7c2.31 0 4.49 1.064 5.912 2.885 1.421 1.82 1.925 4.193 1.364 6.435l-6.715 26.858c-1.761 7.039-8.057 11.955-15.313 11.955zm-25.343-33.132 4.384 17.539c.087.35.4.594.76.594h20.199c.36 0 .672-.244.76-.594l4.385-17.539z"/></g><g><path d="m464.899 511.99h-20.199c-7.256 0-13.552-4.916-15.312-11.955l-6.714-26.858c-.56-2.241-.057-4.614 1.364-6.435 1.421-1.82 3.602-2.885 5.912-2.885h49.7c2.31 0 4.49 1.064 5.912 2.885 1.421 1.82 1.925 4.193 1.364 6.435l-6.715 26.858c-1.76 7.039-8.056 11.955-15.312 11.955zm-25.343-33.132 4.384 17.539c.087.35.4.594.76.594h20.199c.36 0 .672-.244.76-.594l4.385-17.539z"/></g><g><path d="m382.066 511.99h-20.199c-7.255 0-13.552-4.916-15.311-11.955l-6.715-26.858c-.561-2.241-.057-4.614 1.364-6.435 1.421-1.82 3.602-2.885 5.912-2.885h49.7c2.31 0 4.49 1.064 5.912 2.885 1.421 1.82 1.925 4.193 1.364 6.435l-6.715 26.858c-1.76 7.039-8.056 11.955-15.312 11.955zm-25.343-33.132 4.385 17.539c.087.35.4.594.76.594h20.199c.36 0 .673-.244.76-.594l4.385-17.539z"/></g><g><path d="m299.232 511.99h-20.198c-7.256 0-13.552-4.916-15.312-11.955l-6.715-26.858c-.561-2.241-.057-4.614 1.364-6.435 1.421-1.82 3.602-2.885 5.912-2.885h49.7c2.31 0 4.49 1.064 5.912 2.885 1.421 1.82 1.925 4.193 1.364 6.435l-6.715 26.858c-1.759 7.039-8.056 11.955-15.312 11.955zm-25.343-33.132 4.385 17.539c.087.35.4.594.76.594h20.198c.36 0 .673-.244.76-.594l4.385-17.539z"/></g><g><path d="m174.982 511.99h-20.198c-7.256 0-13.552-4.916-15.312-11.955l-6.715-26.858c-.561-2.241-.057-4.614 1.364-6.435 1.421-1.82 3.602-2.885 5.912-2.885h49.7c2.31 0 4.49 1.064 5.912 2.885 1.421 1.82 1.925 4.193 1.364 6.435l-6.715 26.858c-1.759 7.039-8.056 11.955-15.312 11.955zm-25.343-33.132 4.385 17.539c.087.35.4.594.76.594h20.198c.36 0 .673-.244.76-.594l4.385-17.539z"/></g></g></g><g><path d="m504.5 445.724h-480.433c-13.271 0-24.067-10.796-24.067-24.067v-82.834c0-22.405 18.228-40.633 40.633-40.633h7.701c8.064 0 15.55 4.006 20.024 10.716l8.543 12.815c8.097 12.145 20.349 20.803 34.5 24.379 4.016 1.015 6.449 5.094 5.434 9.109s-5.094 6.451-9.109 5.434c-17.764-4.489-33.143-15.357-43.306-30.602l-8.543-12.814c-1.686-2.527-4.506-4.037-7.544-4.037h-7.701c-14.133.001-25.632 11.5-25.632 25.633v82.834c0 4.999 4.067 9.066 9.067 9.066h472.933v-21.491c0-13.247-9.925-24.213-23.086-25.507-.091-.009-.182-.02-.272-.031l-72.953-7.915c-3.809-.413-7.537-1.361-11.081-2.82l-141.859-58.383c-2.68-.92-5.477-1.386-8.316-1.386-5.075 0-9.981 1.482-14.189 4.286l-47.481 32.513c-11.292 7.732-24.486 12.164-38.155 12.816-4.144.222-7.652-2.996-7.85-7.134-.197-4.137 2.997-7.651 7.134-7.849 10.89-.521 21.401-4.051 30.396-10.211l47.559-32.565c6.757-4.504 14.54-6.856 22.585-6.856 4.597 0 9.126.772 13.459 2.293.124.043.248.09.37.141l142.054 58.464c2.235.92 4.588 1.519 6.991 1.779l73.147 7.936c.048.005.096.011.143.017 20.77 2.151 36.404 19.487 36.404 40.413v28.991c0 4.142-3.358 7.5-7.5 7.5z"/></g><g><path d="m189.743 338.041c-.405 0-.814-.032-1.226-.101-4.087-.672-6.856-4.529-6.184-8.617l4.275-26.005c1.304-7.934 6.451-14.66 13.767-17.995s15.769-2.807 22.614 1.414l20.382 12.569c3.525 2.174 4.621 6.795 2.447 10.32-2.174 3.526-6.794 4.621-10.321 2.447l-20.382-12.569c-2.615-1.613-5.721-1.807-8.519-.532-2.797 1.274-4.688 3.746-5.186 6.779l-4.275 26.005c-.605 3.676-3.786 6.285-7.392 6.285z"/></g><g><path d="m388.533 445.724c-4.142 0-7.5-3.357-7.5-7.5 0-39.59 32.209-71.799 71.799-71.799 4.142 0 7.5 3.357 7.5 7.5 0 4.142-3.358 7.5-7.5 7.5-31.319 0-56.799 25.479-56.799 56.799 0 4.142-3.358 7.5-7.5 7.5z"/></g><g><path d="m347.287 386.165c-10.157 0-20.354-2.086-29.904-6.33l-114.129-50.725c-3.785-1.683-5.49-6.114-3.808-9.899 1.682-3.786 6.114-5.491 9.899-3.808l114.129 50.725c19.13 8.501 41.527 6.13 58.451-6.189l2.194-1.597c3.349-2.437 8.04-1.696 10.478 1.651 2.437 3.35 1.698 8.04-1.651 10.478l-2.193 1.596c-12.795 9.313-28.084 14.098-43.466 14.098z"/></g><g><path d="m256 329.757c-1.919 0-3.839-.732-5.303-2.196-2.929-2.93-2.929-7.678 0-10.607l8.283-8.283c2.929-2.928 7.678-2.928 10.606 0 2.929 2.93 2.929 7.678 0 10.607l-8.283 8.283c-1.464 1.464-3.384 2.196-5.303 2.196z"/></g><g><path d="m303.397 348.611c-1.919 0-3.839-.732-5.303-2.196-2.929-2.93-2.929-7.678 0-10.607l8.283-8.283c2.929-2.928 7.678-2.928 10.607 0 2.929 2.93 2.929 7.678 0 10.607l-8.283 8.283c-1.465 1.463-3.384 2.196-5.304 2.196z"/></g><g><path d="m347.117 366.562c-1.919 0-3.839-.732-5.303-2.196-2.929-2.93-2.929-7.678 0-10.607l8.283-8.283c2.929-2.928 7.678-2.928 10.606 0 2.929 2.93 2.929 7.678 0 10.607l-8.283 8.283c-1.464 1.463-3.384 2.196-5.303 2.196z"/></g><g><path d="m106.9 445.724c-4.142 0-7.5-3.357-7.5-7.5 0-32.404-26.363-58.767-58.767-58.767h-33.133c-4.142 0-7.5-3.357-7.5-7.5s3.358-7.5 7.5-7.5h33.133c40.675 0 73.767 33.092 73.767 73.767 0 4.142-3.358 7.5-7.5 7.5z"/></g><g><path d="m156.596 445.724c-1.693 0-3.395-.569-4.797-1.738-3.182-2.651-3.612-7.381-.96-10.563l83.953-100.743c2.652-3.181 7.381-3.611 10.563-.96s3.612 7.381.96 10.564l-83.953 100.743c-1.484 1.778-3.617 2.697-5.766 2.697z"/></g><g><path d="m238.87 445.724c-1.693 0-3.395-.569-4.797-1.738-3.182-2.651-3.612-7.381-.961-10.563l62.125-74.55c2.652-3.181 7.381-3.611 10.563-.96s3.612 7.381.961 10.563l-62.125 74.55c-1.484 1.779-3.617 2.698-5.766 2.698z"/></g><g><path d="m198.572 445.724c-1.693 0-3.395-.569-4.797-1.738-3.182-2.651-3.612-7.381-.96-10.563l72.608-87.13c2.652-3.182 7.381-3.612 10.563-.96 3.182 2.651 3.612 7.381.96 10.564l-72.608 87.13c-1.484 1.778-3.617 2.697-5.766 2.697z"/></g><g><path d="m280.846 445.724c-1.693 0-3.395-.569-4.797-1.738-3.182-2.651-3.612-7.381-.96-10.563l51.116-61.34c2.652-3.182 7.38-3.612 10.563-.96 3.182 2.651 3.612 7.381.96 10.563l-51.116 61.34c-1.484 1.779-3.617 2.698-5.766 2.698z"/></g></g><g><g><g><path d="m270.731 323.423c-1.919 0-3.839-.732-5.303-2.196l-182.868-182.868c-5.13-5.131-6.107-13.06-2.374-19.281l14.245-23.74c2.131-3.552 6.737-4.703 10.29-2.573 3.552 2.132 4.704 6.738 2.572 10.29l-14.244 23.74c-.185.309-.137.703.118.957l182.868 182.868c2.929 2.93 2.929 7.678 0 10.607-1.465 1.464-3.384 2.196-5.304 2.196z"/></g><g><g><path d="m108.001 204.127c-4.077 0-8.111-1.581-11.158-4.628l-14.283-14.284c-5.13-5.13-6.107-13.059-2.374-19.28l14.245-23.739c1.188-1.98 3.223-3.304 5.515-3.585 2.294-.282 4.587.507 6.22 2.14l35.143 35.143c1.633 1.634 2.423 3.928 2.141 6.22-.282 2.293-1.604 4.327-3.585 5.516l-23.74 14.244c-2.528 1.514-5.336 2.253-8.124 2.253zm-5.65-45.977-9.302 15.502c-.185.309-.137.703.118.957l14.283 14.284c.254.254.647.303.956.117l15.504-9.303z"/></g><g><path d="m166.574 262.698c-4.078 0-8.112-1.581-11.159-4.628l-14.282-14.282c-5.131-5.13-6.107-13.059-2.374-19.281l14.245-23.74c1.188-1.98 3.223-3.304 5.515-3.585 2.293-.283 4.587.507 6.22 2.14l35.144 35.143c1.633 1.634 2.423 3.928 2.141 6.22-.282 2.293-1.605 4.327-3.585 5.516l-23.74 14.244c-2.53 1.514-5.338 2.253-8.125 2.253zm-5.651-45.977-9.302 15.503c-.185.309-.137.702.118.957l14.283 14.282c.254.255.649.303.958.118l15.502-9.302z"/></g></g></g><g><path d="m464.178 382.621c-2.279 0-4.53-1.034-6.004-2.997-.222-.297-.452-.588-.689-.877-.056-.067-.11-.137-.163-.206l-45.993-57.188c-2.403-2.989-4.369-6.297-5.842-9.832l-59.026-141.591c-1.245-2.544-2.892-4.852-4.9-6.858-3.588-3.589-8.106-6.01-13.064-7.002l-56.564-10.585c-14.684-2.748-28.028-9.784-38.592-20.347l-7.275-7.275c-17.48-17.48-25.021-42.388-20.173-66.628l3.021-15.101c.596-2.979-.331-6.041-2.48-8.19l-5.445-5.446c-9.994-9.993-26.257-9.994-36.251.001l-58.572 58.572c-3.535 3.534-3.535 9.287 0 12.821l249.502 249.502c2.929 2.93 2.929 7.678 0 10.607-2.929 2.928-7.678 2.928-10.607 0l-249.502-249.502c-9.384-9.384-9.384-24.652 0-34.036l58.572-58.572c15.843-15.842 41.622-15.842 57.464 0l5.445 5.446c5.703 5.702 8.163 13.829 6.582 21.737l-3.021 15.102c-3.862 19.312 2.146 39.154 16.071 53.079l7.275 7.275c8.416 8.416 19.047 14.021 30.745 16.21l56.656 10.602c7.964 1.594 15.131 5.433 20.819 11.121 3.251 3.251 5.908 6.999 7.896 11.139.057.119.111.239.162.361l59.108 141.787c.93 2.23 2.17 4.316 3.686 6.203l46.111 57.333c.029.036.058.072.086.109.327.403.646.809.955 1.222 2.487 3.314 1.817 8.015-1.496 10.501-1.35 1.015-2.93 1.503-4.497 1.503z"/></g><g><path d="m346.858 165.27c-3.396 0-6.474-2.322-7.292-5.771l-5.525-23.3c-.709-2.991-2.767-5.324-5.646-6.401-2.88-1.074-5.963-.666-8.462 1.127l-21.411 15.365c-3.366 2.416-8.051 1.645-10.466-1.72s-1.645-8.051 1.72-10.466l21.411-15.366c6.533-4.688 14.927-5.808 22.46-2.99 7.531 2.815 13.134 9.167 14.989 16.99l5.525 23.3c.956 4.03-1.537 8.072-5.567 9.028-.581.137-1.163.204-1.736.204z"/></g><g><path d="m449.511 364.412c-1.919 0-3.839-.732-5.303-2.196-20.882-20.884-54.764-22.186-77.13-2.963-3.141 2.699-7.876 2.343-10.577-.801-2.699-3.142-2.341-7.876.8-10.576 28.284-24.303 71.117-22.663 97.513 3.732 2.929 2.93 2.929 7.678 0 10.607-1.464 1.465-3.383 2.197-5.303 2.197z"/></g><g><path d="m410.785 312.217c-.388 0-.781-.03-1.176-.092l-2.679-.422c-25.957-4.088-47.942-21.863-57.375-46.389l-44.834-116.568c-1.487-3.866.441-8.205 4.308-9.692s8.206.442 9.692 4.308l44.834 116.568c7.515 19.539 25.029 33.699 45.708 36.955l2.679.422c4.092.645 6.887 4.484 6.242 8.576-.582 3.696-3.772 6.334-7.399 6.334z"/></g><g><path d="m358.579 188.697h-11.714c-4.142 0-7.5-3.357-7.5-7.5s3.358-7.5 7.5-7.5h11.714c4.142 0 7.5 3.357 7.5 7.5 0 4.142-3.358 7.5-7.5 7.5z"/></g><g><path d="m378.762 235.543h-11.714c-4.142 0-7.5-3.357-7.5-7.5s3.358-7.5 7.5-7.5h11.714c4.142 0 7.5 3.357 7.5 7.5s-3.358 7.5-7.5 7.5z"/></g><g><path d="m396.983 279.151h-11.715c-4.142 0-7.5-3.357-7.5-7.5s3.358-7.5 7.5-7.5h11.715c4.142 0 7.5 3.357 7.5 7.5 0 4.142-3.358 7.5-7.5 7.5z"/></g><g><path d="m159.434 165.268c-1.919 0-3.839-.732-5.303-2.196-2.929-2.93-2.929-7.678 0-10.607 11.1-11.1 17.212-25.856 17.212-41.554 0-15.697-6.113-30.455-17.212-41.554l-23.429-23.431c-2.929-2.929-2.929-7.678 0-10.606s7.678-2.929 10.606.001l23.429 23.43c13.933 13.932 21.606 32.456 21.606 52.16 0 19.703-7.673 38.228-21.606 52.161-1.465 1.463-3.384 2.196-5.303 2.196z"/></g><g><path d="m194.568 200.411c-3.835 0-7.107-2.927-7.46-6.821-.375-4.125 2.665-7.772 6.79-8.147l130.6-11.873c4.116-.396 7.773 2.664 8.148 6.79.375 4.125-2.665 7.773-6.79 8.148l-130.6 11.873c-.231.021-.46.03-.688.03z"/></g><g><path d="m252.745 258.587c-3.835 0-7.106-2.927-7.46-6.821-.375-4.125 2.665-7.772 6.79-8.147l96.644-8.786c4.117-.384 7.773 2.665 8.148 6.79s-2.665 7.773-6.79 8.148l-96.644 8.786c-.231.02-.461.03-.688.03z"/></g><g><path d="m224.25 230.094c-3.835 0-7.106-2.928-7.46-6.822-.375-4.125 2.665-7.773 6.79-8.148l112.951-10.269c4.124-.383 7.773 2.664 8.148 6.79.375 4.125-2.665 7.772-6.79 8.147l-112.951 10.269c-.231.022-.461.033-.688.033z"/></g><g><path d="m282.426 288.27c-3.836 0-7.107-2.928-7.461-6.822-.375-4.125 2.665-7.772 6.79-8.147l79.518-7.229c4.133-.395 7.773 2.665 8.148 6.79s-2.665 7.772-6.79 8.147l-79.518 7.229c-.23.021-.46.032-.687.032z"/></g></g></g></g></svg>