<svg height="512" viewBox="0 0 48 60" width="512" xmlns="http://www.w3.org/2000/svg"><g id="Page-1" fill="none" fill-rule="evenodd"><g id="052---Old-Teddy-Bear" fill-rule="nonzero" transform="translate(0 -1)"><path id="Shape" d="m38.34 25.6c-3.3 7.4-16.6 9.867-24.63 4.53-2.9-1.91-4.71-4.62-4.71-7.63 0-3.623 2.389-8.436 4.87-11.53 3.8-4.851 9.064-7.633 14.59-4.85 4.3 2.15 7.856 7.157 9.53 11.65.1555038.4303128-.0061175.9110326-.39 1.16l-.87.58c-.4174284.2816435-.5626439.8283373-.34 1.28.719 1.439.61.979.61 2.49.0012798.4472384.2993696.839247.73.96.2674702.0912669.4850246.2895149.6006835.5473773.1156588.2578623.1190331.5521765.0093165.8126227z" fill="#a0522d"/><path id="Shape" d="m37.73 24.24-.05-.01c-.4046466-.1411508-.6768629-.5214529-.68-.95 0-1.506.118-1.035-.61-2.49-.2226439-.4516627-.0774284-.9983565.34-1.28l.87-.58c.3838825-.2489674.5455038-.7296872.39-1.16-2.411-6.47-8.53-13.807-15.49-12.628 5.741.973 10.484 7.243 12.49 12.628.1555038.4303128-.0061175.9110326-.39 1.16l-.87.58c-.4174284.2816435-.5626439.8283373-.34 1.28.726 1.451.61.99.61 2.49.0031371.4285471.2753534.8088492.68.95.2800823.0787292.5128545.2739714.639125.5360784.1262706.2621071.1338734.5658251.020875.8339216-2.04 4.579-7.775 7-12.84 7.347 6.279.437 13.484-2.061 15.84-7.347.1097166-.2604462.1063423-.5547604-.0093165-.8126227-.1156589-.2578624-.3332133-.4561104-.6006835-.5473773z" fill="#783e22"/><path id="Shape" d="m19 51.47c.0105678 1.5587058-.3493127 3.0976233-1.05 4.49-1.0561102 2.3665508-3.3607654 3.9313923-5.95 4.04-3.87 0-7-3.82-7-8.53s3.13-7.47 7-7.47c.0668228-.0016596.1336761.001683.2.01 2.4315481-.016316 4.67681 1.3001367 5.85 3.43.6494547 1.2424691.9761331 2.6282732.95 4.03z" fill="#a0522d"/><path id="Shape" d="m18.05 47.44c-1.17319-2.1298633-3.4184519-3.446316-5.85-3.43-.0663239-.008317-.1331772-.0116596-.2-.01-.5135689.0003804-1.0258029.0523073-1.529.155 1.9468009.3408981 3.6322834 1.5500726 4.579 3.285.6494547 1.2424691.9761331 2.6282732.95 4.03.0105678 1.5587058-.3493127 3.0976233-1.05 4.49-.8752835 1.8571606-2.5026504 3.2516306-4.472 3.832.4958672.1365082 1.0076885.2064549 1.522.208 2.5892346-.1086077 4.8938898-1.6734492 5.95-4.04.7006873-1.3923767 1.0605678-2.9312942 1.05-4.49.0261331-1.4017268-.3005453-2.7875309-.95-4.03z" fill="#783e22"/><path id="Shape" d="m12 56c-1.419 0-3-1.861-3-4.533 0-2.203 1.093-3.467 3-3.467s3 1.264 3 3.467c0 2.672-1.581 4.533-3 4.533z" fill="#ef314c"/><path id="Shape" d="m43 51.47c0 4.71-3.13 8.53-7 8.53-2.4796197-.0931298-4.7093256-1.5361064-5.81-3.76-.7907753-1.4649033-1.2000192-3.1053178-1.19-4.77-.0228894-1.2957473.2543405-2.5792192.81-3.75 1.1193851-2.2835839 3.4468623-3.7251432 5.99-3.71.0663239-.008317.1331772-.0116596.2-.01 3.87 0 7 2.75 7 7.47z" fill="#a0522d"/><path id="Shape" d="m36 44c-.0668228-.0016596-.1336761.001683-.2.01-.4249745.0136566-.8480876.0624902-1.265.146 3.129.636 5.465 3.238 5.465 7.314s-2.345 7.479-5.484 8.324c.4837277.1323053.9825249.2015453 1.484.206 3.87 0 7-3.82 7-8.53s-3.13-7.47-7-7.47z" fill="#783e22"/><path id="Shape" d="m36 56c-1.419 0-3-1.861-3-4.533 0-2.203 1.093-3.467 3-3.467s3 1.264 3 3.467c0 2.672-1.581 4.533-3 4.533z" fill="#ef314c"/><path id="Shape" d="m19.54 6.12c-3.37 1.69-6.23 5.06-8.11 8.54-2.85853717-.954853-4.68579012-3.7494203-4.41417171-6.75095366.27161842-3.00153335 2.57085823-5.42268106 5.55437021-5.84886821 2.9835119-.42618716 5.8686716 1.25438216 6.9698015 4.05982187z" fill="#a0522d"/><path id="Shape" d="m16 8.5c.0032461.05410998-.0035344.10835398-.02.16-.7645344.71178217-1.4701738 1.4843069-2.11 2.31-.1223278.0199182-.2460612.0299507-.37.03-1.3807119 0-2.5-1.11928813-2.5-2.5s1.1192881-2.5 2.5-2.5 2.5 1.11928813 2.5 2.5z" fill="#ef314c"/><path id="Shape" d="m41 8.5c-.0006797 2.7915809-1.7837605 5.2709889-4.43 6.16-1.89-3.48-4.74-6.85-8.11-8.54 1.1417639-2.90548363 4.1890639-4.58769153 7.2560855-4.00559333s5.2860793 3.26382216 5.2839145 6.38559333z" fill="#a0522d"/><path id="Shape" d="m34.5 2c-.4969371.00564531-.9915549.0687309-1.474.188 2.3529723.56046184 4.1972656 2.38585781 4.7819306 4.73293326.584665 2.34707544-.1878246 4.82432144-2.0029306 6.42306674.269.435.525.875.765 1.316 3.0167314-1.0160406 4.8537783-4.0673481 4.3401171-7.20886986-.5136611-3.14152179-3.2268795-5.44882853-6.4101171-5.45113014z" fill="#783e22"/><path id="Shape" d="m37 8.5c0 1.38071187-1.1192881 2.5-2.5 2.5-.1277938.001546-.255329-.0118788-.38-.04-.6393057-.8199567-1.3414234-1.58894278-2.1-2.3-.0164656-.05164602-.0232461-.10589002-.02-.16 0-1.38071187 1.1192881-2.5 2.5-2.5s2.5 1.11928813 2.5 2.5z" fill="#ef314c"/><circle id="Oval" cx="17" cy="16" fill="#3f51b5" r="2"/><circle id="Oval" cx="31" cy="16" fill="#3f51b5" r="2"/><path id="Shape" d="m33 26.5c0 3.59-4.03 6.5-9 6.5s-9-2.91-9-6.5c0-2.88 2.59-5.32 6.18-6.17-.1186657.2032892-.1808122.4346123-.18.67 0 1.1 1.34 2 3 2s3-.9 3-2c.0008122-.2353877-.0613343-.4667108-.18-.67 3.59.85 6.18 3.29 6.18 6.17z" fill="#ffe0b2"/><path id="Shape" d="m26.82 20.33c.1186657.2032892.1808122.4346123.18.67-.0051463.1974196-.0525441.3914434-.139.569 1.8375199.9806936 3.0281957 2.8511054 3.139 4.931 0 3.22-3.245 5.886-7.5 6.4.4975379.0634283.9984454.0968221 1.5.1 4.97 0 9-2.91 9-6.5 0-2.88-2.59-5.32-6.18-6.17z" fill="#dfc49c"/><path id="Shape" d="m27 21c0 1.1-1.34 2-3 2s-3-.9-3-2c-.0008122-.2353877.0613343-.4667108.18-.67.6414206-.9075461 1.7117213-1.4123333 2.82-1.33 1.1082787-.0823333 2.1785794.4224539 2.82 1.33.1186657.2032892.1808122.4346123.18.67z" fill="#ef314c"/><path id="Shape" d="m30.19 56.24c-1.8523514.515456-3.7673002.7712313-5.69.76-2.2257529.0170048-4.43898-.3344083-6.55-1.04.7006873-1.3923767 1.0605678-2.9312942 1.05-4.49.0261331-1.4017268-.3005453-2.7875309-.95-4.03 2.263555.3787054 4.5549918.5660346 6.85.56 1.6406366-.000692 3.2799209-.0941746 4.91-.28-.5556595 1.1707808-.8328894 2.4542527-.81 3.75-.0100192 1.6646822.3992247 3.3050967 1.19 4.77z" fill="#a0522d"/><path id="Shape" d="m29 51.47c-.0228894-1.2957473.2543405-2.5792192.81-3.75-1.005.114-2.044.183-3.095.227-.4874545 1.1097131-.7312693 2.3110551-.715 3.523-.0100192 1.6646822.3992247 3.3050967 1.19 4.77-1.3432706.3757133-2.7220614.6103155-4.114.7.469.03.941.056 1.424.056 1.9226998.0112313 3.8376486-.244544 5.69-.76-.7901238-1.4637135-1.1993472-3.1026703-1.19-4.766z" fill="#783e22"/><path id="Shape" d="m47 38.12c-.0017542.1910143-.018472.3815975-.05.57-.1469401.8919148-.6430037 1.6886016-1.378568 2.2140047-.7355644.5254032-1.6500726.7362675-2.541432.5859953l-4.62-.86 2.27-7.57 4.25 1.94c1.2520785.5321852 2.0663673 1.759519 2.07 3.12z" fill="#a0522d"/><path id="Shape" d="m9.59 40.63-4.62.86c-.89135943.1502722-1.80586758-.0605921-2.54143195-.5859953-.73556437-.5254031-1.23162791-1.3220899-1.37856805-2.2140047-.03152798-.1884025-.0482458-.3789857-.05-.57.0036327-1.360481.81792145-2.5878148 2.07-3.12l4.25-1.94z" fill="#a0522d"/><path id="Shape" d="m38.41 40.63-3.41-.63.8 4.01c-2.5431377-.0151432-4.8706149 1.4264161-5.99 3.71-1.6300791.1858254-3.2693634.279308-4.91.28-2.2950082.0060346-4.586445-.1812946-6.85-.56-1.17319-2.1298633-3.4184519-3.446316-5.85-3.43l.8-4.01-3.41.63-2.27-7.57 6.39-2.93c3.0789533 1.9346405 6.6542105 2.9318211 10.29 2.87 3.6357895.0618211 7.2110467-.9353595 10.29-2.87l6.39 2.93z" fill="#ffdc00"/><path id="Shape" d="m34.29 30.13c-.4266378.2789173-.8672088.5359171-1.32.77l4.71 2.16-2.113 7.04 2.843.525 2.27-7.57z" fill="#fec108"/><path id="Shape" d="m44.93 35-4.25-1.94-.361 1.2 1.611.74c1.2520785.5321852 2.0663673 1.759519 2.07 3.12-.0017542.1910143-.018472.3815975-.05.57-.1939449 1.1640706-.9796415 2.1433502-2.074 2.585l1.154.215c.8913594.1502722 1.8058676-.0605921 2.541432-.5859953.7355643-.5254031 1.2316279-1.3220899 1.378568-2.2140047.031528-.1884025.0482458-.3789857.05-.57-.0036327-1.360481-.8179215-2.5878148-2.07-3.12z" fill="#783e22"/><path id="Shape" d="m28.707 36.293c-.3904999-.3903819-1.0235001-.3903819-1.414 0-.1609223.1603795-.3298019.3125714-.506.456l-.217-.174c-.3705052-.293962-.8962882-.2881606-1.2602169.0139051s-.4664734.8177845-.2457831 1.2360949c-.9095575.4207746-1.867415.7280816-2.852.915-.1418527-.5224856-.6737537-.8371938-1.2-.71-.4368517.1133991-.7411319.5086751-.739.96-.168.01-.268.01-.273.01-.5522847 0-1 .4477153-1 1s.4477153 1 1 1c.045 0 .307 0 .711-.033l.069.275c.1109803.4449668.5104025.7574146.969.758.0822423-.0001749.1641648-.0102473.244-.03.5352153-.1342322.8605558-.6766155.727-1.212l-.018-.072c1.397542-.2713467 2.7434572-.7617215 3.988-1.453l.24.192c.4311264.3446667 1.0599801.2748438 1.405-.156.2833665-.3584251.2833665-.8645749 0-1.223.126-.111.254-.219.374-.339.3898302-.3910518.3889348-1.0240525-.002-1.414z" fill="#ff9801"/><g fill="#000"><path id="Shape" d="m12 47c-2.467 0-4 1.712-4 4.467 0 3.309 2.068 5.533 4 5.533s4-2.224 4-5.533c0-2.755-1.533-4.467-4-4.467zm0 8c-.8 0-2-1.409-2-3.533 0-2.467 1.505-2.467 2-2.467s2 0 2 2.467c0 2.124-1.2 3.533-2 3.533z"/><path id="Shape" d="m32 51.467c0 3.309 2.068 5.533 4 5.533s4-2.224 4-5.533c0-2.755-1.533-4.467-4-4.467s-4 1.712-4 4.467zm6 0c0 2.124-1.2 3.533-2 3.533s-2-1.409-2-3.533c0-2.467 1.505-2.467 2-2.467s2 0 2 2.467z"/><path id="Shape" d="m17 19c1.6568542 0 3-1.3431458 3-3s-1.3431458-3-3-3-3 1.3431458-3 3 1.3431458 3 3 3zm0-4c.5522847 0 1 .4477153 1 1s-.4477153 1-1 1-1-.4477153-1-1 .4477153-1 1-1z"/><path id="Shape" d="m31 19c1.6568542 0 3-1.3431458 3-3s-1.3431458-3-3-3-3 1.3431458-3 3 1.3431458 3 3 3zm0-4c.5522847 0 1 .4477153 1 1s-.4477153 1-1 1-1-.4477153-1-1 .4477153-1 1-1z"/><path id="Shape" d="m45.346 34.091-9.11-4.17c1.2868313-1.0612207 2.3171672-2.3995634 3.014-3.915.2273094-.5146864.2273094-1.1013136 0-1.616-.2390639-.5317204-.693901-.9359797-1.25-1.111v-1.043c-.0004577-.3102833-.0726728-.6162564-.211-.894l-.5-1 .866-.578c.7738655-.5060226 1.095033-1.4798988.774-2.347-.281-.757-.613-1.513-.979-2.262 2.8584709-1.466495 4.4654329-4.5907218 3.9959957-7.76894329s-2.9109982-5.70446378-6.0713739-6.2819488c-3.1603756-.57748502-6.3375561.92206316-7.9006218 3.72889209-1.2574786-.53477236-2.6076171-.81777822-3.974-.833-1.3690168.00812596-2.7236677.27973518-3.99.8-1.5798778-2.77989765-4.7495387-4.25118922-7.8925528-3.66356108-3.14301417.58762814-5.56699307 3.10472478-6.03578176 6.26764778-.4687887 3.162923 1.12088433 6.2748981 3.95833456 7.7489133-1.19581876 2.2756324-1.8913599 4.7806034-2.04 7.347.10077172 2.9085287 1.48361694 5.6233281 3.777 7.415l-9.1 4.165c-1.62324089.6861955-2.67779579 2.2776792-2.677 4.04.00203469.2459255.02309757.4913248.063.734.19478826 1.1550909.84053311 2.1854626 1.79513225 2.8643721.95459914.6789094 2.13982875.9507238 3.29486775.7556279l6.577-1.221-.354 1.776c-4.376.295-7.376 3.677-7.376 8.438 0 5.257 3.589 9.533 8 9.533 2.664498-.0830638 5.0941867-1.5454221 6.415-3.861 1.9769461.5754771 4.0260026.8654094 6.085.861 1.7641795.0045354 3.5224921-.2032926 5.237-.619 1.342955 2.1861726 3.6982933 3.5471768 6.263 3.619 4.411 0 8-4.276 8-9.533 0-4.761-3-8.143-7.376-8.438l-.354-1.776 6.6 1.224c1.1542649.191274 2.3372299-.0839777 3.2884909-.7651647.951261-.6811869 1.5928407-1.7124702 1.7835091-2.8668353.0381152-.2397957.0575071-.4821945.058-.725.0029552-1.7535888-1.0416788-3.339433-2.654-4.029zm-10.846-31.091c2.537712.00537942 4.7422978 1.74633513 5.3358074 4.21367324s-.5781558 5.02043926-2.8358074 6.17932676c-.34-.578-.7023333-1.1446667-1.087-1.7 1.4054277-.6141367 2.2460274-2.07302614 2.0725212-3.59693113-.1735063-1.52390499-1.3205473-2.75648897-2.8280605-3.03896883s-3.0229949.451197-3.7364607 1.80889996c-.5289964-.41671369-1.0834001-.80012058-1.66-1.148.9900428-1.67809367 2.7906337-2.71080227 4.739-2.718zm.128 7c-.5024896-.6095305-1.0365542-1.19232853-1.6-1.746.1305066-.76924165.8289373-1.30998382 1.6063482-1.24367408.7774109.06630975 1.3741729.71752619 1.3725161 1.49775817-.0016567.78023198-.6011788 1.42890824-1.3788643 1.49191591zm-26.628-1.5c-.00284292-2.47480576 1.64959361-4.64591949 4.0357207-5.30247814 2.386127-.65655865 4.9166588.36358367 6.1802793 2.49147814-.5775719.34297269-1.1326971.72240847-1.662 1.136-.7291778-1.33430032-2.2383241-2.04293391-3.7307383-1.75180265-1.4924143.29113125-2.6245765 1.51501553-2.7988017 3.02554631-.17422514 1.51053078.6495895 2.96001814 2.03654 3.58325634-.385.558-.743 1.128-1.079 1.7-1.83095694-.9392587-2.98229751-2.8241832-2.982-4.882zm5.334 1.5c-.764226-.08347459-1.341633-.73121552-1.3371012-1.49997355.0045318-.76875802.5895352-1.4096466 1.3546922-1.48410555.765157-.07445896 1.462747.44161792 1.615409 1.1950791-.5767185.5659455-1.121875 1.1631807-1.633 1.789zm-3.334 12.5c0-5.434 6.48-16.5 14-16.5 5.611 0 10.814 6.1 13.053 12.094l-.006.007-.866.578c-.8391594.5592854-1.1306591 1.6558387-.68 2.558l.5 1v1.043c.0051296.8808031.5793118 1.6571621 1.42 1.92-.8108329 1.6907234-2.0893268 3.1135857-3.684 4.1-.235.156-.483.3-.73.44.6375823-.9611416.9825326-2.0866593.993-3.24 0-3.186-2.625-5.974-6.567-7.039-.8655927-.9795986-2.126939-1.5163965-3.433-1.461-1.306061-.0553965-2.5674073.4814014-3.433 1.461-3.942 1.065-6.567 3.853-6.567 7.039.0110466 1.1523171.3559723 2.2767124.993 3.237-.248-.143-.5-.286-.733-.442-2.747-1.81-4.26-4.223-4.26-6.795zm6 4c0-2.013 1.612-3.833 4.118-4.793.487179 1.2031585 1.5925032 2.0442327 2.882 2.193v2.1c0 .5522847-.4477153 1-1 1s-1 .4477153-1 1 .4477153 1 1 1c.740399-.0026037 1.4533329-.2806479 2-.78.5466671.4993521 1.259601.7773963 2 .78.5522847 0 1-.4477153 1-1s-.4477153-1-1-1-1-.4477153-1-1v-2.1c1.2890314-.1483985 2.3942431-.9886201 2.882-2.191 2.506.958 4.118 2.778 4.118 4.791 0 3.032-3.589 5.5-8 5.5s-8-2.468-8-5.5zm8-4.5c-1.221 0-2-.592-2-1s.779-1 2-1 2 .592 2 1-.779 1-2 1zm-19.194 18.5c-.62808828.1065124-1.27275436-.0410613-1.79195766-.4102059-.51920331-.3691445-.87033961-.9295691-.97604234-1.5577941-.02330435-.1361437-.03600915-.2738905-.038-.412.00329248-.9694912.58955858-1.8417889 1.486-2.211l3.2-1.467 1.623 5.411zm7.194 18.5c-3.309 0-6-3.379-6-7.533 0-3.867 2.411-6.467 6-6.467s6 2.6 6 6.467c0 4.154-2.691 7.533-6 7.533zm12.5-3c-1.7521502.0041602-3.4970857-.2245074-5.189-.68.4577408-1.2329302.6910875-2.5378425.689-3.853.003611-.9424297-.1256611-1.8806624-.384-2.787 1.106.1373333 2.234.23 3.384.278v2.042c-.5522847 0-1 .4477153-1 1s.4477153 1 1 1c0 .5522847.4477153 1 1 1s1-.4477153 1-1c.5522847 0 1-.4477153 1-1s-.4477153-1-1-1v-2c1.107 0 2.22-.061 3.331-.148-.2232593.853626-.3345262 1.7326681-.331 2.615-.0016493 1.4009281.2648095 2.7892294.785 4.09-1.4086473.2987896-2.8450194.4472874-4.285.443zm17.5-4.533c0 4.154-2.691 7.533-6 7.533s-6-3.379-6-7.533c0-3.867 2.411-6.467 6-6.467s6 2.6 6 6.467zm-6.152-12.327-.267-1.34c-.1148093-.5345276-.63761-.8777704-1.173722-.7706027s-.8867823.6250156-.787278 1.1626027l.4 2 .582 2.92c-2.2658494.3248521-4.2571895 1.6718266-5.402 3.654-3.5111935.3641442-7.0545143.2784512-10.544-.255-1.1705133-1.8463695-3.0915498-3.0868562-5.256-3.394l.582-2.92.4-2c.0995043-.5375871-.251166-1.055435-.787278-1.1626027s-1.0589127.2360751-1.173722.7706027l-.267 1.336-1.861.346-1.766-5.887 5.119-2.343c3.1370983 1.8402696 6.7172588 2.7887321 10.354 2.743 3.6365719.0464902 7.2167598-.9012879 10.354-2.741l5.12 2.343-1.765 5.884zm10.116-.614c-.2190992 1.303138-1.4466976 2.1868126-2.752 1.981l-3.525-.654 1.623-5.411 3.229 1.478c.8845557.3734631 1.4599069 1.2398373 1.461 2.2-.001661.1360517-.0136959.2717787-.036.406z"/></g></g></g></svg>